<mxfile modified="2022-05-20T01:34:26.642Z" host="app.diagrams.net" agent="5.0 (Windows NT 10.0; Win64; x64) AppleWebKit/537.36 (KHTML, like Gecko) Chrome/101.0.4951.54 Safari/537.36" etag="SO1zv4IbcVcQot9yJvre" compressed="false" version="18.0.8" type="google" pages="5">
  <diagram id="YMsq_jnB0PM7RC-cSg19" name="Sequence/Media Logical Module/Endorsement Workflow">
    <mxGraphModel grid="1" page="1" gridSize="10" guides="1" tooltips="1" connect="1" arrows="1" fold="1" pageScale="1" pageWidth="827" pageHeight="1169" math="0" shadow="0">
      <root>
        <mxCell id="tk65oYgh2Pg083-FGu2U-0" />
        <mxCell id="tk65oYgh2Pg083-FGu2U-1" parent="tk65oYgh2Pg083-FGu2U-0" />
        <mxCell id="tk65oYgh2Pg083-FGu2U-3" value="&lt;font style=&quot;font-size: 12px&quot;&gt;&lt;span style=&quot;font-size: 12px&quot;&gt;Diagram: Media Logical Module -&amp;nbsp;&lt;/span&gt;Sequence - Endorsement Sequence&lt;/font&gt;" style="text;strokeColor=none;fillColor=none;html=1;fontSize=12;fontStyle=2;verticalAlign=middle;align=left;shadow=0;glass=0;comic=0;opacity=30;fontColor=#808080;" vertex="1" parent="tk65oYgh2Pg083-FGu2U-1">
          <mxGeometry x="120" y="740" width="520" height="20" as="geometry" />
        </mxCell>
      </root>
    </mxGraphModel>
  </diagram>
  <diagram id="Jc1K8y7sC8uup8_3mSj9" name="Page-365">
    <mxGraphModel dx="1422" dy="762" grid="1" gridSize="10" guides="1" tooltips="1" connect="1" arrows="1" fold="1" page="1" pageScale="1" pageWidth="827" pageHeight="1169" math="0" shadow="0">
      <root>
        <mxCell id="izw3Qo7lZXw8UkypVAKQ-0" />
        <mxCell id="izw3Qo7lZXw8UkypVAKQ-1" parent="izw3Qo7lZXw8UkypVAKQ-0" />
        <mxCell id="izw3Qo7lZXw8UkypVAKQ-2" value="" style="shape=mxgraph.bpmn.shape;html=1;verticalLabelPosition=bottom;labelBackgroundColor=#ffffff;verticalAlign=top;align=center;perimeter=ellipsePerimeter;outlineConnect=0;outline=standard;symbol=timer;fontSize=12;" parent="izw3Qo7lZXw8UkypVAKQ-1" vertex="1">
          <mxGeometry x="120" y="767" width="30" height="30" as="geometry" />
        </mxCell>
        <mxCell id="izw3Qo7lZXw8UkypVAKQ-3" value="" style="shape=mxgraph.bpmn.shape;html=1;verticalLabelPosition=bottom;labelBackgroundColor=#ffffff;verticalAlign=top;align=center;perimeter=ellipsePerimeter;outlineConnect=0;outline=standard;symbol=message;fontSize=11;" parent="izw3Qo7lZXw8UkypVAKQ-1" vertex="1">
          <mxGeometry x="120" y="334" width="30" height="30" as="geometry" />
        </mxCell>
        <mxCell id="izw3Qo7lZXw8UkypVAKQ-4" style="edgeStyle=orthogonalEdgeStyle;rounded=0;orthogonalLoop=1;jettySize=auto;html=1;entryX=1;entryY=0.5;entryDx=0;entryDy=0;fontSize=11;" parent="izw3Qo7lZXw8UkypVAKQ-1" source="izw3Qo7lZXw8UkypVAKQ-24" target="izw3Qo7lZXw8UkypVAKQ-3" edge="1">
          <mxGeometry relative="1" as="geometry" />
        </mxCell>
        <mxCell id="izw3Qo7lZXw8UkypVAKQ-5" style="edgeStyle=orthogonalEdgeStyle;rounded=0;jumpStyle=arc;orthogonalLoop=1;jettySize=auto;html=1;fontSize=9;entryX=1;entryY=0.5;entryDx=0;entryDy=0;exitX=0.5;exitY=1;exitDx=0;exitDy=0;" parent="izw3Qo7lZXw8UkypVAKQ-1" source="izw3Qo7lZXw8UkypVAKQ-78" target="izw3Qo7lZXw8UkypVAKQ-35" edge="1">
          <mxGeometry relative="1" as="geometry">
            <Array as="points">
              <mxPoint x="530" y="1012" />
              <mxPoint x="439" y="1012" />
              <mxPoint x="439" y="782" />
            </Array>
          </mxGeometry>
        </mxCell>
        <mxCell id="izw3Qo7lZXw8UkypVAKQ-6" style="edgeStyle=orthogonalEdgeStyle;rounded=0;jumpStyle=arc;orthogonalLoop=1;jettySize=auto;html=1;fontSize=9;entryX=1;entryY=0.5;entryDx=0;entryDy=0;exitX=0.5;exitY=1;exitDx=0;exitDy=0;" parent="izw3Qo7lZXw8UkypVAKQ-1" source="izw3Qo7lZXw8UkypVAKQ-72" target="izw3Qo7lZXw8UkypVAKQ-35" edge="1">
          <mxGeometry relative="1" as="geometry">
            <Array as="points">
              <mxPoint x="570" y="1012" />
              <mxPoint x="439" y="1012" />
              <mxPoint x="439" y="782" />
            </Array>
          </mxGeometry>
        </mxCell>
        <mxCell id="izw3Qo7lZXw8UkypVAKQ-7" style="edgeStyle=orthogonalEdgeStyle;rounded=0;jumpStyle=arc;orthogonalLoop=1;jettySize=auto;html=1;entryX=1;entryY=0.5;entryDx=0;entryDy=0;fontSize=9;exitX=0.5;exitY=1;exitDx=0;exitDy=0;" parent="izw3Qo7lZXw8UkypVAKQ-1" source="izw3Qo7lZXw8UkypVAKQ-80" target="izw3Qo7lZXw8UkypVAKQ-35" edge="1">
          <mxGeometry relative="1" as="geometry">
            <Array as="points">
              <mxPoint x="518" y="1030" />
              <mxPoint x="439" y="1030" />
              <mxPoint x="439" y="782" />
            </Array>
          </mxGeometry>
        </mxCell>
        <mxCell id="izw3Qo7lZXw8UkypVAKQ-8" style="edgeStyle=orthogonalEdgeStyle;rounded=0;jumpStyle=arc;orthogonalLoop=1;jettySize=auto;html=1;entryX=0;entryY=0.5;entryDx=0;entryDy=0;fontSize=9;" parent="izw3Qo7lZXw8UkypVAKQ-1" source="izw3Qo7lZXw8UkypVAKQ-9" target="izw3Qo7lZXw8UkypVAKQ-23" edge="1">
          <mxGeometry relative="1" as="geometry">
            <Array as="points" />
          </mxGeometry>
        </mxCell>
        <mxCell id="izw3Qo7lZXw8UkypVAKQ-9" value="start" style="shape=mxgraph.bpmn.shape;html=1;verticalLabelPosition=bottom;labelBackgroundColor=#ffffff;verticalAlign=top;align=center;perimeter=ellipsePerimeter;outlineConnect=0;outline=standard;symbol=general;fontSize=10;" parent="izw3Qo7lZXw8UkypVAKQ-1" vertex="1">
          <mxGeometry x="120" y="280" width="20" height="18" as="geometry" />
        </mxCell>
        <mxCell id="izw3Qo7lZXw8UkypVAKQ-10" style="edgeStyle=orthogonalEdgeStyle;rounded=0;orthogonalLoop=1;jettySize=auto;html=1;entryX=0;entryY=0.5;entryDx=0;entryDy=0;fontSize=9;" parent="izw3Qo7lZXw8UkypVAKQ-1" source="izw3Qo7lZXw8UkypVAKQ-28" target="izw3Qo7lZXw8UkypVAKQ-52" edge="1">
          <mxGeometry relative="1" as="geometry" />
        </mxCell>
        <mxCell id="izw3Qo7lZXw8UkypVAKQ-11" style="edgeStyle=elbowEdgeStyle;rounded=0;orthogonalLoop=1;jettySize=auto;html=1;entryX=1;entryY=0.25;entryDx=0;entryDy=0;fontSize=9;exitX=0.5;exitY=1;exitDx=0;exitDy=0;" parent="izw3Qo7lZXw8UkypVAKQ-1" source="izw3Qo7lZXw8UkypVAKQ-52" target="izw3Qo7lZXw8UkypVAKQ-30" edge="1">
          <mxGeometry relative="1" as="geometry">
            <Array as="points">
              <mxPoint x="360" y="460" />
            </Array>
          </mxGeometry>
        </mxCell>
        <mxCell id="izw3Qo7lZXw8UkypVAKQ-12" style="edgeStyle=elbowEdgeStyle;rounded=0;orthogonalLoop=1;jettySize=auto;html=1;entryX=1;entryY=0.75;entryDx=0;entryDy=0;fontSize=9;exitX=1;exitY=0.5;exitDx=0;exitDy=0;" parent="izw3Qo7lZXw8UkypVAKQ-1" source="izw3Qo7lZXw8UkypVAKQ-61" target="izw3Qo7lZXw8UkypVAKQ-30" edge="1">
          <mxGeometry relative="1" as="geometry">
            <Array as="points">
              <mxPoint x="530" y="540" />
            </Array>
          </mxGeometry>
        </mxCell>
        <mxCell id="izw3Qo7lZXw8UkypVAKQ-13" style="edgeStyle=orthogonalEdgeStyle;rounded=0;orthogonalLoop=1;jettySize=auto;html=1;exitX=1;exitY=0.5;exitDx=0;exitDy=0;entryX=0;entryY=0.5;entryDx=0;entryDy=0;fontSize=9;" parent="izw3Qo7lZXw8UkypVAKQ-1" source="izw3Qo7lZXw8UkypVAKQ-31" target="izw3Qo7lZXw8UkypVAKQ-63" edge="1">
          <mxGeometry relative="1" as="geometry">
            <Array as="points">
              <mxPoint x="330" y="519" />
              <mxPoint x="330" y="519" />
            </Array>
          </mxGeometry>
        </mxCell>
        <mxCell id="izw3Qo7lZXw8UkypVAKQ-14" style="rounded=0;jumpStyle=arc;orthogonalLoop=1;jettySize=auto;html=1;entryX=1;entryY=0.5;entryDx=0;entryDy=0;fontSize=9;exitX=0;exitY=0.5;exitDx=0;exitDy=0;" parent="izw3Qo7lZXw8UkypVAKQ-1" source="izw3Qo7lZXw8UkypVAKQ-56" target="izw3Qo7lZXw8UkypVAKQ-34" edge="1">
          <mxGeometry relative="1" as="geometry" />
        </mxCell>
        <mxCell id="izw3Qo7lZXw8UkypVAKQ-15" style="edgeStyle=elbowEdgeStyle;rounded=0;jumpStyle=arc;orthogonalLoop=1;jettySize=auto;html=1;entryX=1;entryY=0.5;entryDx=0;entryDy=0;fontSize=9;exitX=1;exitY=0.5;exitDx=0;exitDy=0;" parent="izw3Qo7lZXw8UkypVAKQ-1" source="izw3Qo7lZXw8UkypVAKQ-55" target="izw3Qo7lZXw8UkypVAKQ-30" edge="1">
          <mxGeometry relative="1" as="geometry">
            <Array as="points">
              <mxPoint x="550" y="590" />
            </Array>
          </mxGeometry>
        </mxCell>
        <mxCell id="izw3Qo7lZXw8UkypVAKQ-16" style="edgeStyle=elbowEdgeStyle;rounded=0;jumpStyle=arc;orthogonalLoop=1;jettySize=auto;html=1;entryX=1;entryY=0.5;entryDx=0;entryDy=0;fontSize=9;exitX=0.5;exitY=1;exitDx=0;exitDy=0;" parent="izw3Qo7lZXw8UkypVAKQ-1" source="izw3Qo7lZXw8UkypVAKQ-45" target="izw3Qo7lZXw8UkypVAKQ-21" edge="1">
          <mxGeometry relative="1" as="geometry">
            <Array as="points">
              <mxPoint x="259" y="1010" />
            </Array>
          </mxGeometry>
        </mxCell>
        <mxCell id="izw3Qo7lZXw8UkypVAKQ-17" style="edgeStyle=orthogonalEdgeStyle;rounded=0;jumpStyle=arc;orthogonalLoop=1;jettySize=auto;html=1;fontSize=9;exitX=1;exitY=0.5;exitDx=0;exitDy=0;" parent="izw3Qo7lZXw8UkypVAKQ-1" source="izw3Qo7lZXw8UkypVAKQ-38" target="izw3Qo7lZXw8UkypVAKQ-71" edge="1">
          <mxGeometry relative="1" as="geometry">
            <mxPoint x="309" y="1012" as="sourcePoint" />
          </mxGeometry>
        </mxCell>
        <mxCell id="izw3Qo7lZXw8UkypVAKQ-18" style="edgeStyle=orthogonalEdgeStyle;rounded=0;jumpStyle=arc;orthogonalLoop=1;jettySize=auto;html=1;entryX=0;entryY=0.5;entryDx=0;entryDy=0;fontSize=9;" parent="izw3Qo7lZXw8UkypVAKQ-1" source="izw3Qo7lZXw8UkypVAKQ-33" target="izw3Qo7lZXw8UkypVAKQ-68" edge="1">
          <mxGeometry relative="1" as="geometry">
            <Array as="points" />
          </mxGeometry>
        </mxCell>
        <mxCell id="izw3Qo7lZXw8UkypVAKQ-19" style="edgeStyle=orthogonalEdgeStyle;rounded=0;orthogonalLoop=1;jettySize=auto;html=1;entryX=1;entryY=0.5;entryDx=0;entryDy=0;exitX=0;exitY=0.5;exitDx=0;exitDy=0;fontSize=9;" parent="izw3Qo7lZXw8UkypVAKQ-1" source="izw3Qo7lZXw8UkypVAKQ-57" target="izw3Qo7lZXw8UkypVAKQ-47" edge="1">
          <mxGeometry relative="1" as="geometry">
            <mxPoint x="470.1428571428571" y="679.8571428571429" as="sourcePoint" />
            <mxPoint x="210" y="920" as="targetPoint" />
            <Array as="points" />
          </mxGeometry>
        </mxCell>
        <mxCell id="izw3Qo7lZXw8UkypVAKQ-20" style="edgeStyle=elbowEdgeStyle;rounded=0;jumpStyle=arc;orthogonalLoop=1;jettySize=auto;html=1;entryX=1;entryY=0.5;entryDx=0;entryDy=0;fontSize=9;exitX=0.75;exitY=0;exitDx=0;exitDy=0;" parent="izw3Qo7lZXw8UkypVAKQ-1" source="izw3Qo7lZXw8UkypVAKQ-74" target="izw3Qo7lZXw8UkypVAKQ-24" edge="1">
          <mxGeometry relative="1" as="geometry">
            <Array as="points">
              <mxPoint x="660" y="660" />
              <mxPoint x="760" y="670" />
            </Array>
          </mxGeometry>
        </mxCell>
        <mxCell id="izw3Qo7lZXw8UkypVAKQ-21" value="end" style="shape=mxgraph.bpmn.shape;html=1;verticalLabelPosition=bottom;labelBackgroundColor=#ffffff;verticalAlign=top;align=center;perimeter=ellipsePerimeter;outlineConnect=0;outline=end;symbol=general;fontSize=10;" parent="izw3Qo7lZXw8UkypVAKQ-1" vertex="1">
          <mxGeometry x="120" y="1000" width="20" height="18" as="geometry" />
        </mxCell>
        <mxCell id="izw3Qo7lZXw8UkypVAKQ-22" value="Developers" style="swimlane;fontSize=12;fontColor=#999999;strokeColor=#B3B3B3;dashed=1;swimlaneLine=1;collapsible=0;" parent="izw3Qo7lZXw8UkypVAKQ-1" vertex="1">
          <mxGeometry x="150" y="240" width="140" height="760" as="geometry">
            <mxRectangle x="40" y="90" width="160" height="23" as="alternateBounds" />
          </mxGeometry>
        </mxCell>
        <mxCell id="izw3Qo7lZXw8UkypVAKQ-23" value="&lt;p style=&quot;line-height: 90%; font-size: 11px;&quot;&gt;Create new &lt;i style=&quot;font-size: 11px;&quot;&gt;Typed&lt;/i&gt;&amp;nbsp;(ie structured) Media&lt;/p&gt;" style="shape=ext;rounded=1;html=1;whiteSpace=wrap;fontSize=11;spacing=0;spacingTop=-5;" parent="izw3Qo7lZXw8UkypVAKQ-22" vertex="1">
          <mxGeometry x="40" y="30" width="80" height="38" as="geometry" />
        </mxCell>
        <mxCell id="izw3Qo7lZXw8UkypVAKQ-24" value="Invite Collaborators&lt;br style=&quot;font-size: 10px;&quot;&gt;to Draft" style="shape=ext;rounded=1;html=1;whiteSpace=wrap;fontSize=10;" parent="izw3Qo7lZXw8UkypVAKQ-22" vertex="1">
          <mxGeometry x="40" y="90" width="80" height="38" as="geometry" />
        </mxCell>
        <mxCell id="izw3Qo7lZXw8UkypVAKQ-25" style="edgeStyle=orthogonalEdgeStyle;rounded=0;orthogonalLoop=1;jettySize=auto;html=1;entryX=0.5;entryY=0;entryDx=0;entryDy=0;exitX=0.5;exitY=1;exitDx=0;exitDy=0;fontSize=9;" parent="izw3Qo7lZXw8UkypVAKQ-22" source="izw3Qo7lZXw8UkypVAKQ-23" target="izw3Qo7lZXw8UkypVAKQ-24" edge="1">
          <mxGeometry relative="1" as="geometry" />
        </mxCell>
        <mxCell id="izw3Qo7lZXw8UkypVAKQ-26" value="Edit" style="shape=ext;rounded=1;html=1;whiteSpace=wrap;fontSize=10;" parent="izw3Qo7lZXw8UkypVAKQ-22" vertex="1">
          <mxGeometry x="40" y="150" width="80" height="20" as="geometry" />
        </mxCell>
        <mxCell id="izw3Qo7lZXw8UkypVAKQ-27" style="edgeStyle=orthogonalEdgeStyle;rounded=0;orthogonalLoop=1;jettySize=auto;html=1;entryX=0.5;entryY=0;entryDx=0;entryDy=0;fontSize=9;" parent="izw3Qo7lZXw8UkypVAKQ-22" source="izw3Qo7lZXw8UkypVAKQ-24" target="izw3Qo7lZXw8UkypVAKQ-26" edge="1">
          <mxGeometry relative="1" as="geometry" />
        </mxCell>
        <mxCell id="izw3Qo7lZXw8UkypVAKQ-28" value="Publish&amp;nbsp;&lt;br&gt;for Review" style="shape=ext;rounded=1;html=1;whiteSpace=wrap;fontSize=10;" parent="izw3Qo7lZXw8UkypVAKQ-22" vertex="1">
          <mxGeometry x="40" y="190" width="80" height="20" as="geometry" />
        </mxCell>
        <mxCell id="izw3Qo7lZXw8UkypVAKQ-29" style="edgeStyle=orthogonalEdgeStyle;rounded=0;orthogonalLoop=1;jettySize=auto;html=1;entryX=0.5;entryY=0;entryDx=0;entryDy=0;fontSize=9;" parent="izw3Qo7lZXw8UkypVAKQ-22" source="izw3Qo7lZXw8UkypVAKQ-26" target="izw3Qo7lZXw8UkypVAKQ-28" edge="1">
          <mxGeometry relative="1" as="geometry" />
        </mxCell>
        <mxCell id="izw3Qo7lZXw8UkypVAKQ-30" value="Edit" style="shape=ext;rounded=1;html=1;whiteSpace=wrap;fontSize=10;" parent="izw3Qo7lZXw8UkypVAKQ-22" vertex="1">
          <mxGeometry x="40" y="230" width="80" height="20" as="geometry" />
        </mxCell>
        <mxCell id="izw3Qo7lZXw8UkypVAKQ-31" value="Publish&amp;nbsp;&lt;br&gt;for Approval" style="shape=ext;rounded=1;html=1;whiteSpace=wrap;fontSize=10;" parent="izw3Qo7lZXw8UkypVAKQ-22" vertex="1">
          <mxGeometry x="40" y="270" width="80" height="20" as="geometry" />
        </mxCell>
        <mxCell id="izw3Qo7lZXw8UkypVAKQ-32" style="edgeStyle=orthogonalEdgeStyle;rounded=0;orthogonalLoop=1;jettySize=auto;html=1;fontSize=9;" parent="izw3Qo7lZXw8UkypVAKQ-22" source="izw3Qo7lZXw8UkypVAKQ-30" target="izw3Qo7lZXw8UkypVAKQ-31" edge="1">
          <mxGeometry relative="1" as="geometry" />
        </mxCell>
        <mxCell id="izw3Qo7lZXw8UkypVAKQ-33" value="Publish&lt;br&gt;for Endorsement" style="shape=ext;rounded=1;html=1;whiteSpace=wrap;fontSize=10;" parent="izw3Qo7lZXw8UkypVAKQ-22" vertex="1">
          <mxGeometry x="40" y="400" width="80" height="20" as="geometry" />
        </mxCell>
        <mxCell id="izw3Qo7lZXw8UkypVAKQ-34" value="Publish&lt;br style=&quot;font-size: 10px;&quot;&gt;for Consumption" style="shape=ext;rounded=1;html=1;whiteSpace=wrap;fontSize=10;" parent="izw3Qo7lZXw8UkypVAKQ-22" vertex="1">
          <mxGeometry x="39" y="462" width="80" height="40" as="geometry" />
        </mxCell>
        <mxCell id="izw3Qo7lZXw8UkypVAKQ-35" value="Review" style="shape=mxgraph.bpmn.shape;html=1;verticalLabelPosition=bottom;labelBackgroundColor=#ffffff;verticalAlign=top;align=center;perimeter=rhombusPerimeter;background=gateway;outlineConnect=0;outline=none;symbol=exclusiveGw;fontSize=10;" parent="izw3Qo7lZXw8UkypVAKQ-22" vertex="1">
          <mxGeometry x="59" y="522" width="40" height="40" as="geometry" />
        </mxCell>
        <mxCell id="izw3Qo7lZXw8UkypVAKQ-36" value="Stale" style="shape=ext;rounded=1;html=1;whiteSpace=wrap;fontSize=10;" parent="izw3Qo7lZXw8UkypVAKQ-22" vertex="1">
          <mxGeometry x="30" y="602" width="40" height="20" as="geometry" />
        </mxCell>
        <mxCell id="izw3Qo7lZXw8UkypVAKQ-37" style="edgeStyle=orthogonalEdgeStyle;rounded=0;jumpStyle=arc;orthogonalLoop=1;jettySize=auto;html=1;fontSize=9;" parent="izw3Qo7lZXw8UkypVAKQ-22" source="izw3Qo7lZXw8UkypVAKQ-35" target="izw3Qo7lZXw8UkypVAKQ-36" edge="1">
          <mxGeometry relative="1" as="geometry">
            <Array as="points">
              <mxPoint x="79" y="582" />
              <mxPoint x="49" y="582" />
            </Array>
          </mxGeometry>
        </mxCell>
        <mxCell id="izw3Qo7lZXw8UkypVAKQ-38" value="Current" style="shape=ext;rounded=1;html=1;whiteSpace=wrap;fontSize=10;" parent="izw3Qo7lZXw8UkypVAKQ-22" vertex="1">
          <mxGeometry x="90" y="602" width="40" height="20" as="geometry" />
        </mxCell>
        <mxCell id="izw3Qo7lZXw8UkypVAKQ-39" style="edgeStyle=orthogonalEdgeStyle;rounded=0;jumpStyle=arc;orthogonalLoop=1;jettySize=auto;html=1;fontSize=9;" parent="izw3Qo7lZXw8UkypVAKQ-22" source="izw3Qo7lZXw8UkypVAKQ-35" target="izw3Qo7lZXw8UkypVAKQ-38" edge="1">
          <mxGeometry relative="1" as="geometry">
            <Array as="points">
              <mxPoint x="79" y="582" />
              <mxPoint x="109" y="582" />
            </Array>
          </mxGeometry>
        </mxCell>
        <mxCell id="izw3Qo7lZXw8UkypVAKQ-40" value="Action" style="shape=mxgraph.bpmn.shape;html=1;verticalLabelPosition=bottom;labelBackgroundColor=#ffffff;verticalAlign=top;align=center;perimeter=rhombusPerimeter;background=gateway;outlineConnect=0;outline=none;symbol=exclusiveGw;fontSize=10;" parent="izw3Qo7lZXw8UkypVAKQ-22" vertex="1">
          <mxGeometry x="59" y="652" width="40" height="40" as="geometry" />
        </mxCell>
        <mxCell id="izw3Qo7lZXw8UkypVAKQ-41" style="edgeStyle=orthogonalEdgeStyle;rounded=0;jumpStyle=arc;orthogonalLoop=1;jettySize=auto;html=1;fontSize=9;entryX=0.5;entryY=0;entryDx=0;entryDy=0;exitX=0.5;exitY=1;exitDx=0;exitDy=0;" parent="izw3Qo7lZXw8UkypVAKQ-22" source="izw3Qo7lZXw8UkypVAKQ-36" target="izw3Qo7lZXw8UkypVAKQ-40" edge="1">
          <mxGeometry relative="1" as="geometry">
            <mxPoint x="39" y="810" as="targetPoint" />
            <Array as="points">
              <mxPoint x="50" y="632" />
              <mxPoint x="79" y="632" />
            </Array>
          </mxGeometry>
        </mxCell>
        <mxCell id="izw3Qo7lZXw8UkypVAKQ-42" value="Clone" style="shape=ext;rounded=1;html=1;whiteSpace=wrap;fontSize=10;" parent="izw3Qo7lZXw8UkypVAKQ-22" vertex="1">
          <mxGeometry x="30" y="732" width="40" height="20" as="geometry" />
        </mxCell>
        <mxCell id="izw3Qo7lZXw8UkypVAKQ-43" style="edgeStyle=elbowEdgeStyle;rounded=0;jumpStyle=arc;orthogonalLoop=1;jettySize=auto;html=1;exitX=0;exitY=0.5;exitDx=0;exitDy=0;fontSize=9;entryX=0;entryY=0.5;entryDx=0;entryDy=0;" parent="izw3Qo7lZXw8UkypVAKQ-22" source="izw3Qo7lZXw8UkypVAKQ-42" target="izw3Qo7lZXw8UkypVAKQ-26" edge="1">
          <mxGeometry relative="1" as="geometry">
            <mxPoint x="60" y="198" as="targetPoint" />
            <Array as="points">
              <mxPoint x="10" y="450" />
            </Array>
          </mxGeometry>
        </mxCell>
        <mxCell id="izw3Qo7lZXw8UkypVAKQ-44" style="edgeStyle=orthogonalEdgeStyle;rounded=0;jumpStyle=arc;orthogonalLoop=1;jettySize=auto;html=1;entryX=0.5;entryY=0;entryDx=0;entryDy=0;exitX=0.5;exitY=1;exitDx=0;exitDy=0;fontSize=9;" parent="izw3Qo7lZXw8UkypVAKQ-22" source="izw3Qo7lZXw8UkypVAKQ-40" target="izw3Qo7lZXw8UkypVAKQ-42" edge="1">
          <mxGeometry relative="1" as="geometry">
            <mxPoint x="19" y="890" as="targetPoint" />
            <Array as="points">
              <mxPoint x="79" y="712" />
              <mxPoint x="50" y="712" />
            </Array>
          </mxGeometry>
        </mxCell>
        <mxCell id="izw3Qo7lZXw8UkypVAKQ-45" value="Retire" style="shape=ext;rounded=1;html=1;whiteSpace=wrap;fontSize=10;" parent="izw3Qo7lZXw8UkypVAKQ-22" vertex="1">
          <mxGeometry x="89" y="732" width="40" height="20" as="geometry" />
        </mxCell>
        <mxCell id="izw3Qo7lZXw8UkypVAKQ-46" style="edgeStyle=orthogonalEdgeStyle;rounded=0;jumpStyle=arc;orthogonalLoop=1;jettySize=auto;html=1;fontSize=9;" parent="izw3Qo7lZXw8UkypVAKQ-22" source="izw3Qo7lZXw8UkypVAKQ-40" target="izw3Qo7lZXw8UkypVAKQ-45" edge="1">
          <mxGeometry relative="1" as="geometry">
            <Array as="points">
              <mxPoint x="79" y="712" />
              <mxPoint x="109" y="712" />
            </Array>
          </mxGeometry>
        </mxCell>
        <mxCell id="izw3Qo7lZXw8UkypVAKQ-47" value="Need Endorsement?" style="shape=mxgraph.bpmn.shape;html=1;verticalLabelPosition=bottom;labelBackgroundColor=#ffffff;verticalAlign=top;align=center;perimeter=rhombusPerimeter;background=gateway;outlineConnect=0;outline=none;symbol=exclusiveGw;fontSize=10;" parent="izw3Qo7lZXw8UkypVAKQ-22" vertex="1">
          <mxGeometry x="60" y="330" width="40" height="40" as="geometry" />
        </mxCell>
        <mxCell id="izw3Qo7lZXw8UkypVAKQ-48" value="No" style="edgeStyle=elbowEdgeStyle;rounded=0;orthogonalLoop=1;jettySize=auto;html=1;entryX=0;entryY=0.5;entryDx=0;entryDy=0;fontSize=9;exitX=0;exitY=0.5;exitDx=0;exitDy=0;" parent="izw3Qo7lZXw8UkypVAKQ-22" source="izw3Qo7lZXw8UkypVAKQ-47" target="izw3Qo7lZXw8UkypVAKQ-34" edge="1">
          <mxGeometry x="0.0922" relative="1" as="geometry">
            <mxPoint x="40" y="678" as="targetPoint" />
            <Array as="points">
              <mxPoint x="20" y="420" />
            </Array>
            <mxPoint as="offset" />
          </mxGeometry>
        </mxCell>
        <mxCell id="izw3Qo7lZXw8UkypVAKQ-49" value="Yes" style="rounded=0;jumpStyle=arc;orthogonalLoop=1;jettySize=auto;html=1;entryX=0.5;entryY=0;entryDx=0;entryDy=0;fontSize=9;" parent="izw3Qo7lZXw8UkypVAKQ-22" source="izw3Qo7lZXw8UkypVAKQ-47" target="izw3Qo7lZXw8UkypVAKQ-33" edge="1">
          <mxGeometry x="0.5" relative="1" as="geometry">
            <mxPoint x="310" y="688" as="targetPoint" />
            <mxPoint as="offset" />
          </mxGeometry>
        </mxCell>
        <mxCell id="izw3Qo7lZXw8UkypVAKQ-50" style="edgeStyle=orthogonalEdgeStyle;rounded=0;orthogonalLoop=1;jettySize=auto;html=1;fontSize=12;" parent="izw3Qo7lZXw8UkypVAKQ-1" source="izw3Qo7lZXw8UkypVAKQ-2" target="izw3Qo7lZXw8UkypVAKQ-35" edge="1">
          <mxGeometry relative="1" as="geometry" />
        </mxCell>
        <mxCell id="izw3Qo7lZXw8UkypVAKQ-51" value="Reviewers" style="swimlane;fontSize=12;fontColor=#999999;strokeColor=#B3B3B3;dashed=1;swimlaneLine=1;collapsible=0;" parent="izw3Qo7lZXw8UkypVAKQ-1" vertex="1">
          <mxGeometry x="290" y="240" width="90" height="760" as="geometry">
            <mxRectangle x="200" y="90" width="100" height="23" as="alternateBounds" />
          </mxGeometry>
        </mxCell>
        <mxCell id="izw3Qo7lZXw8UkypVAKQ-52" value="Comment" style="shape=ext;rounded=1;html=1;whiteSpace=wrap;fontSize=10;" parent="izw3Qo7lZXw8UkypVAKQ-51" vertex="1">
          <mxGeometry x="20" y="190" width="60" height="20" as="geometry" />
        </mxCell>
        <mxCell id="izw3Qo7lZXw8UkypVAKQ-53" value="Note: Collaborators&amp;nbsp;can be internal/external cross-domain SMEs" style="shape=note;whiteSpace=wrap;html=1;size=14;verticalAlign=top;align=left;spacingTop=-6;" parent="izw3Qo7lZXw8UkypVAKQ-51" vertex="1">
          <mxGeometry x="2" y="50" width="206" height="40" as="geometry" />
        </mxCell>
        <mxCell id="izw3Qo7lZXw8UkypVAKQ-54" value="Approvers" style="swimlane;fontSize=12;fontColor=#999999;strokeColor=#B3B3B3;dashed=1;swimlaneLine=1;collapsible=0;" parent="izw3Qo7lZXw8UkypVAKQ-1" vertex="1">
          <mxGeometry x="380" y="240" width="120" height="760" as="geometry">
            <mxRectangle x="300" y="90" width="120" height="23" as="alternateBounds" />
          </mxGeometry>
        </mxCell>
        <mxCell id="izw3Qo7lZXw8UkypVAKQ-55" value="Reject" style="shape=ext;rounded=1;html=1;whiteSpace=wrap;fontSize=10;" parent="izw3Qo7lZXw8UkypVAKQ-54" vertex="1">
          <mxGeometry x="69" y="472" width="40" height="20" as="geometry" />
        </mxCell>
        <mxCell id="izw3Qo7lZXw8UkypVAKQ-56" value="Endorse" style="shape=ext;rounded=1;html=1;whiteSpace=wrap;fontSize=10;" parent="izw3Qo7lZXw8UkypVAKQ-54" vertex="1">
          <mxGeometry x="9" y="472" width="40" height="20" as="geometry" />
        </mxCell>
        <mxCell id="izw3Qo7lZXw8UkypVAKQ-57" value="Approval" style="shape=ext;rounded=1;html=1;whiteSpace=wrap;fontSize=10;" parent="izw3Qo7lZXw8UkypVAKQ-54" vertex="1">
          <mxGeometry x="10" y="340" width="40" height="20" as="geometry" />
        </mxCell>
        <mxCell id="izw3Qo7lZXw8UkypVAKQ-58" value="Endorse" style="shape=mxgraph.bpmn.shape;html=1;verticalLabelPosition=bottom;labelBackgroundColor=#ffffff;verticalAlign=top;align=center;perimeter=rhombusPerimeter;background=gateway;outlineConnect=0;outline=none;symbol=exclusiveGw;fontSize=10;" parent="izw3Qo7lZXw8UkypVAKQ-54" vertex="1">
          <mxGeometry x="70" y="390" width="40" height="40" as="geometry" />
        </mxCell>
        <mxCell id="izw3Qo7lZXw8UkypVAKQ-59" style="edgeStyle=orthogonalEdgeStyle;rounded=0;orthogonalLoop=1;jettySize=auto;html=1;entryX=0.5;entryY=0;entryDx=0;entryDy=0;fontSize=9;" parent="izw3Qo7lZXw8UkypVAKQ-54" source="izw3Qo7lZXw8UkypVAKQ-58" target="izw3Qo7lZXw8UkypVAKQ-55" edge="1">
          <mxGeometry relative="1" as="geometry" />
        </mxCell>
        <mxCell id="izw3Qo7lZXw8UkypVAKQ-60" style="edgeStyle=orthogonalEdgeStyle;rounded=0;orthogonalLoop=1;jettySize=auto;html=1;entryX=0.5;entryY=0;entryDx=0;entryDy=0;fontSize=9;exitX=0.5;exitY=1;exitDx=0;exitDy=0;" parent="izw3Qo7lZXw8UkypVAKQ-54" source="izw3Qo7lZXw8UkypVAKQ-58" target="izw3Qo7lZXw8UkypVAKQ-56" edge="1">
          <mxGeometry relative="1" as="geometry">
            <Array as="points">
              <mxPoint x="90" y="450" />
              <mxPoint x="29" y="450" />
            </Array>
          </mxGeometry>
        </mxCell>
        <mxCell id="izw3Qo7lZXw8UkypVAKQ-61" value="Reject" style="shape=ext;rounded=1;html=1;whiteSpace=wrap;fontSize=10;" parent="izw3Qo7lZXw8UkypVAKQ-54" vertex="1">
          <mxGeometry x="70" y="340" width="40" height="20" as="geometry" />
        </mxCell>
        <mxCell id="izw3Qo7lZXw8UkypVAKQ-62" style="edgeStyle=orthogonalEdgeStyle;rounded=0;jumpStyle=arc;orthogonalLoop=1;jettySize=auto;html=1;fontSize=9;fontColor=#999999;" parent="izw3Qo7lZXw8UkypVAKQ-54" source="izw3Qo7lZXw8UkypVAKQ-63" target="izw3Qo7lZXw8UkypVAKQ-64" edge="1">
          <mxGeometry relative="1" as="geometry" />
        </mxCell>
        <mxCell id="izw3Qo7lZXw8UkypVAKQ-63" value="Check&lt;br&gt;&lt;font style=&quot;font-size: 9px&quot;&gt;(Custom)&lt;/font&gt;" style="shape=ext;rounded=1;html=1;whiteSpace=wrap;fontSize=10;dashed=1;fillColor=#fff2cc;strokeColor=#d6b656;strokeWidth=2;" parent="izw3Qo7lZXw8UkypVAKQ-54" vertex="1">
          <mxGeometry x="10" y="260" width="40" height="38" as="geometry" />
        </mxCell>
        <mxCell id="izw3Qo7lZXw8UkypVAKQ-64" value="Approve" style="shape=mxgraph.bpmn.shape;html=1;verticalLabelPosition=bottom;labelBackgroundColor=#ffffff;verticalAlign=top;align=center;perimeter=rhombusPerimeter;background=gateway;outlineConnect=0;outline=none;symbol=exclusiveGw;fontSize=10;" parent="izw3Qo7lZXw8UkypVAKQ-54" vertex="1">
          <mxGeometry x="70" y="260" width="40" height="38" as="geometry" />
        </mxCell>
        <mxCell id="izw3Qo7lZXw8UkypVAKQ-65" style="edgeStyle=orthogonalEdgeStyle;rounded=0;orthogonalLoop=1;jettySize=auto;html=1;entryX=0.5;entryY=0;entryDx=0;entryDy=0;fontSize=9;exitX=0.5;exitY=1;exitDx=0;exitDy=0;" parent="izw3Qo7lZXw8UkypVAKQ-54" source="izw3Qo7lZXw8UkypVAKQ-64" target="izw3Qo7lZXw8UkypVAKQ-57" edge="1">
          <mxGeometry relative="1" as="geometry">
            <Array as="points">
              <mxPoint x="90" y="320" />
              <mxPoint x="30" y="320" />
            </Array>
          </mxGeometry>
        </mxCell>
        <mxCell id="izw3Qo7lZXw8UkypVAKQ-66" style="edgeStyle=orthogonalEdgeStyle;rounded=0;orthogonalLoop=1;jettySize=auto;html=1;entryX=0.5;entryY=0;entryDx=0;entryDy=0;fontSize=9;exitX=0.5;exitY=1;exitDx=0;exitDy=0;" parent="izw3Qo7lZXw8UkypVAKQ-54" source="izw3Qo7lZXw8UkypVAKQ-64" target="izw3Qo7lZXw8UkypVAKQ-61" edge="1">
          <mxGeometry relative="1" as="geometry">
            <Array as="points">
              <mxPoint x="90" y="298" />
              <mxPoint x="90" y="340" />
            </Array>
          </mxGeometry>
        </mxCell>
        <mxCell id="izw3Qo7lZXw8UkypVAKQ-67" style="rounded=0;jumpStyle=arc;orthogonalLoop=1;jettySize=auto;html=1;entryX=0;entryY=0.5;entryDx=0;entryDy=0;fontSize=9;fontColor=#999999;" parent="izw3Qo7lZXw8UkypVAKQ-54" source="izw3Qo7lZXw8UkypVAKQ-68" target="izw3Qo7lZXw8UkypVAKQ-58" edge="1">
          <mxGeometry relative="1" as="geometry" />
        </mxCell>
        <mxCell id="izw3Qo7lZXw8UkypVAKQ-68" value="Check&lt;br&gt;&lt;span style=&quot;font-size: 9px&quot;&gt;(Custom)&lt;/span&gt;" style="shape=ext;rounded=1;html=1;whiteSpace=wrap;fontSize=10;dashed=1;fillColor=#fff2cc;strokeColor=#d6b656;strokeWidth=2;" parent="izw3Qo7lZXw8UkypVAKQ-54" vertex="1">
          <mxGeometry x="10" y="390" width="40" height="40" as="geometry" />
        </mxCell>
        <mxCell id="izw3Qo7lZXw8UkypVAKQ-69" value="" style="endArrow=classic;html=1;exitX=0.75;exitY=0.25;exitDx=0;exitDy=0;exitPerimeter=0;entryX=0.25;entryY=0.25;entryDx=0;entryDy=0;entryPerimeter=0;" parent="izw3Qo7lZXw8UkypVAKQ-54" source="izw3Qo7lZXw8UkypVAKQ-64" target="izw3Qo7lZXw8UkypVAKQ-64" edge="1">
          <mxGeometry width="50" height="50" relative="1" as="geometry">
            <mxPoint x="10" y="270" as="sourcePoint" />
            <mxPoint x="60" y="220" as="targetPoint" />
            <Array as="points">
              <mxPoint x="100" y="250" />
              <mxPoint x="80" y="250" />
            </Array>
          </mxGeometry>
        </mxCell>
        <mxCell id="izw3Qo7lZXw8UkypVAKQ-70" value="Consumers" style="swimlane;fontSize=12;fontColor=#999999;strokeColor=#B3B3B3;dashed=1;swimlaneLine=1;collapsible=0;" parent="izw3Qo7lZXw8UkypVAKQ-1" vertex="1">
          <mxGeometry x="500" y="240" width="180" height="760" as="geometry">
            <mxRectangle x="460" y="90" width="180" height="23" as="alternateBounds" />
          </mxGeometry>
        </mxCell>
        <mxCell id="izw3Qo7lZXw8UkypVAKQ-71" value="Use" style="shape=mxgraph.bpmn.shape;html=1;verticalLabelPosition=bottom;labelBackgroundColor=#ffffff;verticalAlign=top;align=center;perimeter=rhombusPerimeter;background=gateway;outlineConnect=0;outline=none;symbol=parallelGw;fontSize=10;" parent="izw3Qo7lZXw8UkypVAKQ-70" vertex="1">
          <mxGeometry x="69" y="632" width="40" height="38" as="geometry" />
        </mxCell>
        <mxCell id="izw3Qo7lZXw8UkypVAKQ-72" value="&lt;font style=&quot;font-size: 10px&quot;&gt;Link&lt;/font&gt;" style="shape=ext;rounded=1;html=1;whiteSpace=wrap;fontSize=10;" parent="izw3Qo7lZXw8UkypVAKQ-70" vertex="1">
          <mxGeometry x="50" y="710" width="40" height="40" as="geometry" />
        </mxCell>
        <mxCell id="izw3Qo7lZXw8UkypVAKQ-73" value="&lt;font style=&quot;font-size: 8px&quot;&gt;Comment&lt;/font&gt;" style="shape=ext;rounded=1;html=1;whiteSpace=wrap;fontSize=10;" parent="izw3Qo7lZXw8UkypVAKQ-70" vertex="1">
          <mxGeometry x="90" y="710" width="40" height="40" as="geometry" />
        </mxCell>
        <mxCell id="izw3Qo7lZXw8UkypVAKQ-74" value="Clone" style="shape=ext;rounded=1;html=1;whiteSpace=wrap;fontSize=10;" parent="izw3Qo7lZXw8UkypVAKQ-70" vertex="1">
          <mxGeometry x="130" y="710" width="40" height="40" as="geometry" />
        </mxCell>
        <mxCell id="izw3Qo7lZXw8UkypVAKQ-75" style="edgeStyle=orthogonalEdgeStyle;rounded=0;jumpStyle=arc;orthogonalLoop=1;jettySize=auto;html=1;entryX=0.5;entryY=0;entryDx=0;entryDy=0;fontSize=9;exitX=0.5;exitY=1;exitDx=0;exitDy=0;" parent="izw3Qo7lZXw8UkypVAKQ-70" source="izw3Qo7lZXw8UkypVAKQ-71" target="izw3Qo7lZXw8UkypVAKQ-72" edge="1">
          <mxGeometry relative="1" as="geometry">
            <mxPoint x="89" y="702" as="sourcePoint" />
            <Array as="points">
              <mxPoint x="89" y="692" />
              <mxPoint x="70" y="692" />
            </Array>
          </mxGeometry>
        </mxCell>
        <mxCell id="izw3Qo7lZXw8UkypVAKQ-76" style="edgeStyle=orthogonalEdgeStyle;rounded=0;jumpStyle=arc;orthogonalLoop=1;jettySize=auto;html=1;entryX=0.5;entryY=0;entryDx=0;entryDy=0;fontSize=9;exitX=0.5;exitY=1;exitDx=0;exitDy=0;" parent="izw3Qo7lZXw8UkypVAKQ-70" source="izw3Qo7lZXw8UkypVAKQ-71" target="izw3Qo7lZXw8UkypVAKQ-73" edge="1">
          <mxGeometry relative="1" as="geometry">
            <mxPoint x="89" y="702" as="sourcePoint" />
            <Array as="points">
              <mxPoint x="89" y="692" />
              <mxPoint x="110" y="692" />
            </Array>
          </mxGeometry>
        </mxCell>
        <mxCell id="izw3Qo7lZXw8UkypVAKQ-77" style="edgeStyle=orthogonalEdgeStyle;rounded=0;jumpStyle=arc;orthogonalLoop=1;jettySize=auto;html=1;fontSize=9;exitX=0.5;exitY=1;exitDx=0;exitDy=0;entryX=0.5;entryY=0;entryDx=0;entryDy=0;" parent="izw3Qo7lZXw8UkypVAKQ-70" source="izw3Qo7lZXw8UkypVAKQ-71" target="izw3Qo7lZXw8UkypVAKQ-74" edge="1">
          <mxGeometry relative="1" as="geometry">
            <mxPoint x="269" y="682" as="sourcePoint" />
            <mxPoint x="219" y="742" as="targetPoint" />
            <Array as="points">
              <mxPoint x="89" y="692" />
              <mxPoint x="150" y="692" />
            </Array>
          </mxGeometry>
        </mxCell>
        <mxCell id="izw3Qo7lZXw8UkypVAKQ-78" value="Read" style="shape=ext;rounded=1;html=1;whiteSpace=wrap;fontSize=10;" parent="izw3Qo7lZXw8UkypVAKQ-1" vertex="1">
          <mxGeometry x="510" y="950" width="40" height="40" as="geometry" />
        </mxCell>
        <mxCell id="izw3Qo7lZXw8UkypVAKQ-79" style="edgeStyle=orthogonalEdgeStyle;rounded=0;jumpStyle=arc;orthogonalLoop=1;jettySize=auto;html=1;entryX=0.5;entryY=0;entryDx=0;entryDy=0;fontSize=9;exitX=0.5;exitY=1;exitDx=0;exitDy=0;" parent="izw3Qo7lZXw8UkypVAKQ-1" source="izw3Qo7lZXw8UkypVAKQ-71" target="izw3Qo7lZXw8UkypVAKQ-78" edge="1">
          <mxGeometry relative="1" as="geometry">
            <mxPoint x="619" y="942" as="sourcePoint" />
            <Array as="points">
              <mxPoint x="619" y="932" />
              <mxPoint x="559" y="932" />
            </Array>
          </mxGeometry>
        </mxCell>
        <mxCell id="izw3Qo7lZXw8UkypVAKQ-80" value="" style="shape=mxgraph.bpmn.shape;html=1;verticalLabelPosition=bottom;labelBackgroundColor=#ffffff;verticalAlign=top;align=center;perimeter=ellipsePerimeter;outlineConnect=0;outline=standard;symbol=message;fontSize=12;" parent="izw3Qo7lZXw8UkypVAKQ-1" vertex="1">
          <mxGeometry x="505" y="1018" width="25" height="25" as="geometry" />
        </mxCell>
        <mxCell id="izw3Qo7lZXw8UkypVAKQ-81" style="edgeStyle=orthogonalEdgeStyle;rounded=0;jumpStyle=arc;orthogonalLoop=1;jettySize=auto;html=1;entryX=1;entryY=0.5;entryDx=0;entryDy=0;fontSize=9;exitX=0.5;exitY=1;exitDx=0;exitDy=0;" parent="izw3Qo7lZXw8UkypVAKQ-1" source="izw3Qo7lZXw8UkypVAKQ-73" target="izw3Qo7lZXw8UkypVAKQ-80" edge="1">
          <mxGeometry relative="1" as="geometry">
            <Array as="points">
              <mxPoint x="610" y="1030" />
              <mxPoint x="530" y="1030" />
            </Array>
            <mxPoint x="610" y="990" as="sourcePoint" />
            <mxPoint x="249" y="782" as="targetPoint" />
          </mxGeometry>
        </mxCell>
        <mxCell id="izw3Qo7lZXw8UkypVAKQ-82" value="" style="group" parent="izw3Qo7lZXw8UkypVAKQ-1" vertex="1" connectable="0">
          <mxGeometry x="120" y="180" width="560" height="50" as="geometry" />
        </mxCell>
        <UserObject label="Information (if any) presented below builds upon &lt;br&gt;what is already within&amp;nbsp; the Description of the &lt;br&gt;Base&amp;nbsp;Logical Module." link="https://drive.google.com/file/d/1oMV0IeGAAscQwm4mQmpwyKH3BHNU0Zv-/view?usp=sharing" id="izw3Qo7lZXw8UkypVAKQ-83">
          <mxCell style="shape=note;size=20;whiteSpace=wrap;html=1;strokeWidth=1;fillColor=none;fontSize=12;align=left;fontStyle=2;strokeColor=#999999;fontColor=#999999;" parent="izw3Qo7lZXw8UkypVAKQ-82" vertex="1">
            <mxGeometry width="280" height="50" as="geometry" />
          </mxCell>
        </UserObject>
        <mxCell id="izw3Qo7lZXw8UkypVAKQ-84" value="" style="rounded=0;whiteSpace=wrap;html=1;fontSize=10;align=left;container=1;collapsible=0;fontColor=#B3B3B3;strokeColor=#B3B3B3;" parent="izw3Qo7lZXw8UkypVAKQ-1" vertex="1">
          <mxGeometry x="440" y="180" width="240" height="50" as="geometry" />
        </mxCell>
        <mxCell id="izw3Qo7lZXw8UkypVAKQ-85" value="" style="whiteSpace=wrap;html=1;aspect=fixed;fillColor=none;strokeColor=#82b366;fontSize=10;align=left;fontStyle=2;strokeWidth=2;" parent="izw3Qo7lZXw8UkypVAKQ-84" vertex="1">
          <mxGeometry x="13.294460641399398" y="16.666666666666668" width="8.333333333333334" height="8.333333333333334" as="geometry" />
        </mxCell>
        <mxCell id="izw3Qo7lZXw8UkypVAKQ-86" value="" style="whiteSpace=wrap;html=1;aspect=fixed;fillColor=none;strokeColor=#d6b656;fontSize=10;align=left;fontStyle=2;strokeWidth=2;" parent="izw3Qo7lZXw8UkypVAKQ-84" vertex="1">
          <mxGeometry x="13.294460641399398" y="28" width="8.333333333333334" height="8.333333333333334" as="geometry" />
        </mxCell>
        <mxCell id="izw3Qo7lZXw8UkypVAKQ-87" value="" style="whiteSpace=wrap;html=1;aspect=fixed;fillColor=none;strokeColor=#6c8ebf;fontSize=10;align=left;fontStyle=2;strokeWidth=2;" parent="izw3Qo7lZXw8UkypVAKQ-84" vertex="1">
          <mxGeometry x="13.294460641399398" y="39.333333333333336" width="8.333333333333334" height="8.333333333333334" as="geometry" />
        </mxCell>
        <mxCell id="izw3Qo7lZXw8UkypVAKQ-88" value="Internal, System (underlying optional Tenants)&amp;nbsp;" style="text;html=1;strokeColor=none;fillColor=none;align=left;verticalAlign=middle;whiteSpace=wrap;rounded=0;fontSize=10;fontStyle=2;fontColor=#B3B3B3;" parent="izw3Qo7lZXw8UkypVAKQ-84" vertex="1">
          <mxGeometry x="26.5945189504373" y="16.666666666666668" width="213.40548104956264" height="8.333333333333334" as="geometry" />
        </mxCell>
        <mxCell id="izw3Qo7lZXw8UkypVAKQ-89" value="Internal, (optionally) Tenanted" style="text;html=1;strokeColor=none;fillColor=none;align=left;verticalAlign=middle;whiteSpace=wrap;rounded=0;fontSize=10;fontStyle=2;fontColor=#B3B3B3;" parent="izw3Qo7lZXw8UkypVAKQ-84" vertex="1">
          <mxGeometry x="26.59" y="30" width="213.41" height="6.33" as="geometry" />
        </mxCell>
        <mxCell id="izw3Qo7lZXw8UkypVAKQ-90" value="External, Versioned Contracts/Msgs" style="text;html=1;strokeColor=none;fillColor=none;align=left;verticalAlign=middle;whiteSpace=wrap;rounded=0;fontSize=10;fontStyle=2;fontColor=#B3B3B3;" parent="izw3Qo7lZXw8UkypVAKQ-84" vertex="1">
          <mxGeometry x="26.5945189504373" y="39.333333333333336" width="213.40548104956264" height="8.333333333333334" as="geometry" />
        </mxCell>
        <mxCell id="izw3Qo7lZXw8UkypVAKQ-91" value="Legend" style="text;html=1;strokeColor=none;fillColor=none;align=center;verticalAlign=middle;whiteSpace=wrap;rounded=0;fontSize=10;fontStyle=5;fontColor=#B3B3B3;" parent="izw3Qo7lZXw8UkypVAKQ-84" vertex="1">
          <mxGeometry x="26.588921282798815" width="159.53352769679296" height="16.666666666666668" as="geometry" />
        </mxCell>
        <mxCell id="izw3Qo7lZXw8UkypVAKQ-92" value="&lt;font style=&quot;font-size: 12px&quot;&gt;Diagram: Media Logical Module - Sequence - Sequences&lt;/font&gt;" style="text;strokeColor=none;fillColor=none;html=1;fontSize=12;fontStyle=2;verticalAlign=middle;align=left;shadow=0;glass=0;comic=0;opacity=30;fontColor=#808080;" parent="izw3Qo7lZXw8UkypVAKQ-1" vertex="1">
          <mxGeometry x="120" y="1040" width="520" height="20" as="geometry" />
        </mxCell>
      </root>
    </mxGraphModel>
  </diagram>
  <diagram id="CHpBmYsbfFzm7etwhbLG" name="Page-366">
    <mxGraphModel dx="1422" dy="762" grid="1" gridSize="10" guides="1" tooltips="1" connect="1" arrows="1" fold="1" page="1" pageScale="1" pageWidth="827" pageHeight="1169" math="0" shadow="0">
      <root>
        <mxCell id="QMf7iVNrH8QPrel4G_Pt-0" />
        <mxCell id="QMf7iVNrH8QPrel4G_Pt-1" value="Diagram" parent="QMf7iVNrH8QPrel4G_Pt-0" />
        <mxCell id="QMf7iVNrH8QPrel4G_Pt-3" value="" style="shape=mxgraph.bpmn.shape;html=1;verticalLabelPosition=bottom;labelBackgroundColor=#ffffff;verticalAlign=top;align=center;perimeter=ellipsePerimeter;outlineConnect=0;outline=end;symbol=general;" parent="QMf7iVNrH8QPrel4G_Pt-1" vertex="1">
          <mxGeometry x="430" y="700" width="20" height="20" as="geometry" />
        </mxCell>
        <mxCell id="QMf7iVNrH8QPrel4G_Pt-4" style="edgeStyle=orthogonalEdgeStyle;rounded=0;orthogonalLoop=1;jettySize=auto;html=1;entryX=0.5;entryY=0;entryDx=0;entryDy=0;exitX=0.5;exitY=1;exitDx=0;exitDy=0;" parent="QMf7iVNrH8QPrel4G_Pt-1" source="QMf7iVNrH8QPrel4G_Pt-5" target="QMf7iVNrH8QPrel4G_Pt-20" edge="1">
          <mxGeometry relative="1" as="geometry" />
        </mxCell>
        <mxCell id="QMf7iVNrH8QPrel4G_Pt-5" value="Draft" style="swimlane;html=1;fontStyle=1;align=center;verticalAlign=middle;childLayout=stackLayout;horizontal=1;startSize=21;horizontalStack=0;resizeParent=0;resizeLast=1;container=0;fontColor=#000000;collapsible=0;rounded=1;arcSize=10;strokeColor=#B3B3B3;fillColor=none;swimlaneFillColor=none;" parent="QMf7iVNrH8QPrel4G_Pt-1" vertex="1">
          <mxGeometry x="120" y="280" width="80" height="40" as="geometry" />
        </mxCell>
        <mxCell id="QMf7iVNrH8QPrel4G_Pt-6" value="" style="edgeStyle=orthogonalEdgeStyle;html=1;verticalAlign=bottom;endArrow=open;endSize=8;strokeColor=#000000;entryX=0.5;entryY=0;entryDx=0;entryDy=0;" parent="QMf7iVNrH8QPrel4G_Pt-1" source="QMf7iVNrH8QPrel4G_Pt-5" target="QMf7iVNrH8QPrel4G_Pt-9" edge="1">
          <mxGeometry relative="1" as="geometry">
            <mxPoint x="150" y="430" as="targetPoint" />
          </mxGeometry>
        </mxCell>
        <mxCell id="QMf7iVNrH8QPrel4G_Pt-7" value="" style="ellipse;html=1;shape=startState;fillColor=#000000;strokeColor=#000000;" parent="QMf7iVNrH8QPrel4G_Pt-1" vertex="1">
          <mxGeometry x="145" y="210" width="30" height="30" as="geometry" />
        </mxCell>
        <mxCell id="QMf7iVNrH8QPrel4G_Pt-8" value="" style="edgeStyle=orthogonalEdgeStyle;html=1;verticalAlign=bottom;endArrow=open;endSize=8;strokeColor=#000000;entryX=0.5;entryY=0;entryDx=0;entryDy=0;" parent="QMf7iVNrH8QPrel4G_Pt-1" source="QMf7iVNrH8QPrel4G_Pt-7" target="QMf7iVNrH8QPrel4G_Pt-5" edge="1">
          <mxGeometry relative="1" as="geometry">
            <mxPoint x="355" y="210" as="targetPoint" />
          </mxGeometry>
        </mxCell>
        <mxCell id="QMf7iVNrH8QPrel4G_Pt-9" value="For Review" style="swimlane;html=1;fontStyle=1;align=center;verticalAlign=middle;childLayout=stackLayout;horizontal=1;startSize=21;horizontalStack=0;resizeParent=0;resizeLast=1;container=0;fontColor=#000000;collapsible=0;rounded=1;arcSize=10;strokeColor=#B3B3B3;fillColor=none;swimlaneFillColor=none;" parent="QMf7iVNrH8QPrel4G_Pt-1" vertex="1">
          <mxGeometry x="360" y="340" width="80" height="40" as="geometry" />
        </mxCell>
        <mxCell id="QMf7iVNrH8QPrel4G_Pt-10" value="Endorsed" style="swimlane;html=1;fontStyle=1;align=center;verticalAlign=middle;childLayout=stackLayout;horizontal=1;startSize=22;horizontalStack=0;resizeParent=0;resizeLast=1;container=0;fontColor=#B3B3B3;collapsible=0;rounded=1;arcSize=10;strokeColor=#B3B3B3;fillColor=#f5f5f5;swimlaneFillColor=#ffffff;" parent="QMf7iVNrH8QPrel4G_Pt-1" vertex="1">
          <mxGeometry x="520" y="440" width="80" height="40" as="geometry" />
        </mxCell>
        <mxCell id="QMf7iVNrH8QPrel4G_Pt-11" value="Approved" style="swimlane;html=1;fontStyle=1;align=center;verticalAlign=middle;childLayout=stackLayout;horizontal=1;startSize=23;horizontalStack=0;resizeParent=0;resizeLast=1;container=0;fontColor=#000000;collapsible=0;rounded=1;arcSize=10;strokeColor=#B3B3B3;fillColor=none;swimlaneFillColor=#ffffff;" parent="QMf7iVNrH8QPrel4G_Pt-1" vertex="1">
          <mxGeometry x="360" y="410" width="80" height="40" as="geometry" />
        </mxCell>
        <mxCell id="QMf7iVNrH8QPrel4G_Pt-12" style="edgeStyle=orthogonalEdgeStyle;rounded=0;orthogonalLoop=1;jettySize=auto;html=1;strokeWidth=1;" parent="QMf7iVNrH8QPrel4G_Pt-1" source="QMf7iVNrH8QPrel4G_Pt-13" edge="1">
          <mxGeometry relative="1" as="geometry">
            <mxPoint x="480" y="570" as="targetPoint" />
            <Array as="points">
              <mxPoint x="400" y="550" />
              <mxPoint x="480" y="550" />
            </Array>
          </mxGeometry>
        </mxCell>
        <mxCell id="QMf7iVNrH8QPrel4G_Pt-13" value="Released" style="swimlane;html=1;fontStyle=1;align=center;verticalAlign=middle;childLayout=stackLayout;horizontal=1;startSize=23;horizontalStack=0;resizeParent=0;resizeLast=1;container=0;fontColor=#000000;collapsible=0;rounded=1;arcSize=10;strokeColor=#B3B3B3;fillColor=none;swimlaneFillColor=#ffffff;" parent="QMf7iVNrH8QPrel4G_Pt-1" vertex="1">
          <mxGeometry x="360" y="490" width="80" height="40" as="geometry" />
        </mxCell>
        <mxCell id="QMf7iVNrH8QPrel4G_Pt-14" value="" style="edgeStyle=orthogonalEdgeStyle;html=1;verticalAlign=bottom;endArrow=open;endSize=8;strokeColor=#000000;exitX=0.5;exitY=1;exitDx=0;exitDy=0;entryX=0.5;entryY=0;entryDx=0;entryDy=0;" parent="QMf7iVNrH8QPrel4G_Pt-1" source="QMf7iVNrH8QPrel4G_Pt-11" target="QMf7iVNrH8QPrel4G_Pt-13" edge="1">
          <mxGeometry relative="1" as="geometry">
            <mxPoint x="160" y="440" as="targetPoint" />
            <mxPoint x="170" y="340" as="sourcePoint" />
          </mxGeometry>
        </mxCell>
        <mxCell id="QMf7iVNrH8QPrel4G_Pt-15" value="" style="edgeStyle=orthogonalEdgeStyle;html=1;verticalAlign=bottom;endArrow=open;endSize=8;strokeColor=#000000;exitX=0.5;exitY=1;exitDx=0;exitDy=0;entryX=0.5;entryY=0;entryDx=0;entryDy=0;" parent="QMf7iVNrH8QPrel4G_Pt-1" source="QMf7iVNrH8QPrel4G_Pt-9" target="QMf7iVNrH8QPrel4G_Pt-11" edge="1">
          <mxGeometry relative="1" as="geometry">
            <mxPoint x="340" y="400" as="targetPoint" />
            <mxPoint x="170" y="340" as="sourcePoint" />
            <Array as="points" />
          </mxGeometry>
        </mxCell>
        <mxCell id="QMf7iVNrH8QPrel4G_Pt-16" value="" style="edgeStyle=orthogonalEdgeStyle;html=1;verticalAlign=bottom;endArrow=open;endSize=8;strokeColor=#ff0000;exitX=0;exitY=0.5;exitDx=0;exitDy=0;entryX=1;entryY=0.5;entryDx=0;entryDy=0;" parent="QMf7iVNrH8QPrel4G_Pt-1" source="QMf7iVNrH8QPrel4G_Pt-9" target="QMf7iVNrH8QPrel4G_Pt-19" edge="1">
          <mxGeometry relative="1" as="geometry">
            <mxPoint x="490" y="330" as="targetPoint" />
            <mxPoint x="350" y="390" as="sourcePoint" />
          </mxGeometry>
        </mxCell>
        <mxCell id="QMf7iVNrH8QPrel4G_Pt-17" style="edgeStyle=orthogonalEdgeStyle;rounded=0;orthogonalLoop=1;jettySize=auto;html=1;entryX=0.75;entryY=0;entryDx=0;entryDy=0;exitX=0;exitY=0.75;exitDx=0;exitDy=0;" parent="QMf7iVNrH8QPrel4G_Pt-1" source="QMf7iVNrH8QPrel4G_Pt-19" target="QMf7iVNrH8QPrel4G_Pt-20" edge="1">
          <mxGeometry relative="1" as="geometry" />
        </mxCell>
        <mxCell id="QMf7iVNrH8QPrel4G_Pt-18" style="edgeStyle=orthogonalEdgeStyle;rounded=0;orthogonalLoop=1;jettySize=auto;html=1;entryX=0.75;entryY=1;entryDx=0;entryDy=0;exitX=0;exitY=0.25;exitDx=0;exitDy=0;" parent="QMf7iVNrH8QPrel4G_Pt-1" source="QMf7iVNrH8QPrel4G_Pt-19" target="QMf7iVNrH8QPrel4G_Pt-5" edge="1">
          <mxGeometry relative="1" as="geometry" />
        </mxCell>
        <mxCell id="QMf7iVNrH8QPrel4G_Pt-19" value="Rejected" style="swimlane;html=1;fontStyle=1;align=center;verticalAlign=middle;childLayout=stackLayout;horizontal=1;startSize=21;horizontalStack=0;resizeParent=0;resizeLast=1;container=0;fontColor=#000000;collapsible=0;rounded=1;arcSize=10;strokeColor=#B3B3B3;fillColor=none;swimlaneFillColor=none;" parent="QMf7iVNrH8QPrel4G_Pt-1" vertex="1">
          <mxGeometry x="240" y="340" width="80" height="40" as="geometry" />
        </mxCell>
        <mxCell id="QMf7iVNrH8QPrel4G_Pt-20" value="Abandoned" style="swimlane;html=1;fontStyle=1;align=center;verticalAlign=middle;childLayout=stackLayout;horizontal=1;startSize=21;horizontalStack=0;resizeParent=0;resizeLast=1;container=0;fontColor=#000000;collapsible=0;rounded=1;arcSize=10;strokeColor=#B3B3B3;fillColor=none;swimlaneFillColor=none;" parent="QMf7iVNrH8QPrel4G_Pt-1" vertex="1">
          <mxGeometry x="120" y="400" width="80" height="40" as="geometry" />
        </mxCell>
        <mxCell id="QMf7iVNrH8QPrel4G_Pt-21" value="&lt;font color=&quot;#cccccc&quot;&gt;Replaced&lt;/font&gt;" style="swimlane;html=1;fontStyle=1;align=center;verticalAlign=middle;childLayout=stackLayout;horizontal=1;startSize=23;horizontalStack=0;resizeParent=0;resizeLast=1;container=0;fontColor=#333333;collapsible=0;rounded=1;arcSize=10;strokeColor=#666666;fillColor=#f5f5f5;swimlaneFillColor=#ffffff;" parent="QMf7iVNrH8QPrel4G_Pt-1" vertex="1">
          <mxGeometry x="500" y="610" width="80" height="40" as="geometry" />
        </mxCell>
        <mxCell id="QMf7iVNrH8QPrel4G_Pt-22" value="" style="swimlane;html=1;fontStyle=1;align=center;verticalAlign=middle;childLayout=stackLayout;horizontal=1;startSize=23;horizontalStack=0;resizeParent=0;resizeLast=1;container=0;fontColor=#000000;collapsible=0;rounded=1;arcSize=10;strokeColor=#B3B3B3;fillColor=none;swimlaneFillColor=#ffffff;" parent="QMf7iVNrH8QPrel4G_Pt-21" vertex="1">
          <mxGeometry y="23" width="80" height="17" as="geometry" />
        </mxCell>
        <mxCell id="QMf7iVNrH8QPrel4G_Pt-23" style="edgeStyle=orthogonalEdgeStyle;rounded=0;orthogonalLoop=1;jettySize=auto;html=1;entryX=0.5;entryY=0;entryDx=0;entryDy=0;strokeWidth=1;" parent="QMf7iVNrH8QPrel4G_Pt-1" source="QMf7iVNrH8QPrel4G_Pt-24" target="QMf7iVNrH8QPrel4G_Pt-3" edge="1">
          <mxGeometry relative="1" as="geometry">
            <Array as="points">
              <mxPoint x="240" y="670" />
              <mxPoint x="440" y="670" />
            </Array>
          </mxGeometry>
        </mxCell>
        <mxCell id="QMf7iVNrH8QPrel4G_Pt-24" value="Retracted" style="swimlane;html=1;fontStyle=1;align=center;verticalAlign=middle;childLayout=stackLayout;horizontal=1;startSize=23;horizontalStack=0;resizeParent=0;resizeLast=1;container=0;fontColor=#000000;collapsible=0;rounded=1;arcSize=10;strokeColor=#B3B3B3;fillColor=none;swimlaneFillColor=#ffffff;" parent="QMf7iVNrH8QPrel4G_Pt-1" vertex="1">
          <mxGeometry x="200" y="610" width="80" height="40" as="geometry" />
        </mxCell>
        <mxCell id="QMf7iVNrH8QPrel4G_Pt-25" value="Superceded" style="swimlane;html=1;fontStyle=1;align=center;verticalAlign=middle;childLayout=stackLayout;horizontal=1;startSize=23;horizontalStack=0;resizeParent=0;resizeLast=1;container=0;fontColor=#000000;collapsible=0;rounded=1;arcSize=10;strokeColor=#B3B3B3;fillColor=none;swimlaneFillColor=#ffffff;" parent="QMf7iVNrH8QPrel4G_Pt-1" vertex="1">
          <mxGeometry x="600" y="610" width="80" height="40" as="geometry" />
        </mxCell>
        <mxCell id="QMf7iVNrH8QPrel4G_Pt-26" style="edgeStyle=orthogonalEdgeStyle;rounded=0;orthogonalLoop=1;jettySize=auto;html=1;entryX=0.5;entryY=0;entryDx=0;entryDy=0;strokeWidth=1;" parent="QMf7iVNrH8QPrel4G_Pt-1" source="QMf7iVNrH8QPrel4G_Pt-27" target="QMf7iVNrH8QPrel4G_Pt-3" edge="1">
          <mxGeometry relative="1" as="geometry" />
        </mxCell>
        <mxCell id="QMf7iVNrH8QPrel4G_Pt-27" value="Merged" style="swimlane;html=1;fontStyle=1;align=center;verticalAlign=middle;childLayout=stackLayout;horizontal=1;startSize=23;horizontalStack=0;resizeParent=0;resizeLast=1;container=0;fontColor=#000000;collapsible=0;rounded=1;arcSize=10;strokeColor=#B3B3B3;fillColor=none;swimlaneFillColor=#ffffff;" parent="QMf7iVNrH8QPrel4G_Pt-1" vertex="1">
          <mxGeometry x="400" y="610" width="80" height="40" as="geometry" />
        </mxCell>
        <mxCell id="QMf7iVNrH8QPrel4G_Pt-28" style="edgeStyle=orthogonalEdgeStyle;rounded=0;orthogonalLoop=1;jettySize=auto;html=1;strokeWidth=1;" parent="QMf7iVNrH8QPrel4G_Pt-1" source="QMf7iVNrH8QPrel4G_Pt-29" edge="1">
          <mxGeometry relative="1" as="geometry">
            <mxPoint x="440" y="700" as="targetPoint" />
            <Array as="points">
              <mxPoint x="340" y="670" />
              <mxPoint x="440" y="670" />
            </Array>
          </mxGeometry>
        </mxCell>
        <mxCell id="QMf7iVNrH8QPrel4G_Pt-29" value="Retired" style="swimlane;html=1;fontStyle=1;align=center;verticalAlign=middle;childLayout=stackLayout;horizontal=1;startSize=23;horizontalStack=0;resizeParent=0;resizeLast=1;container=0;fontColor=#000000;collapsible=0;rounded=1;arcSize=10;strokeColor=#B3B3B3;fillColor=none;swimlaneFillColor=#ffffff;" parent="QMf7iVNrH8QPrel4G_Pt-1" vertex="1">
          <mxGeometry x="300" y="610" width="80" height="40" as="geometry" />
        </mxCell>
        <mxCell id="QMf7iVNrH8QPrel4G_Pt-30" value="" style="endArrow=none;html=1;strokeWidth=4;" parent="QMf7iVNrH8QPrel4G_Pt-1" edge="1">
          <mxGeometry width="50" height="50" relative="1" as="geometry">
            <mxPoint x="360" y="570" as="sourcePoint" />
            <mxPoint x="600" y="570" as="targetPoint" />
          </mxGeometry>
        </mxCell>
        <mxCell id="QMf7iVNrH8QPrel4G_Pt-31" style="edgeStyle=orthogonalEdgeStyle;rounded=0;orthogonalLoop=1;jettySize=auto;html=1;strokeWidth=1;entryX=0.5;entryY=0;entryDx=0;entryDy=0;" parent="QMf7iVNrH8QPrel4G_Pt-1" target="QMf7iVNrH8QPrel4G_Pt-24" edge="1">
          <mxGeometry relative="1" as="geometry">
            <mxPoint x="500" y="590" as="targetPoint" />
            <mxPoint x="480" y="560" as="sourcePoint" />
            <Array as="points">
              <mxPoint x="480" y="590" />
              <mxPoint x="240" y="590" />
            </Array>
          </mxGeometry>
        </mxCell>
        <mxCell id="QMf7iVNrH8QPrel4G_Pt-32" style="edgeStyle=orthogonalEdgeStyle;rounded=0;orthogonalLoop=1;jettySize=auto;html=1;strokeWidth=1;entryX=0.5;entryY=0;entryDx=0;entryDy=0;" parent="QMf7iVNrH8QPrel4G_Pt-1" target="QMf7iVNrH8QPrel4G_Pt-29" edge="1">
          <mxGeometry relative="1" as="geometry">
            <mxPoint x="250" y="620" as="targetPoint" />
            <mxPoint x="480" y="570" as="sourcePoint" />
            <Array as="points">
              <mxPoint x="480" y="590" />
              <mxPoint x="340" y="590" />
            </Array>
          </mxGeometry>
        </mxCell>
        <mxCell id="QMf7iVNrH8QPrel4G_Pt-33" style="edgeStyle=orthogonalEdgeStyle;rounded=0;orthogonalLoop=1;jettySize=auto;html=1;strokeWidth=1;entryX=0.5;entryY=0;entryDx=0;entryDy=0;" parent="QMf7iVNrH8QPrel4G_Pt-1" target="QMf7iVNrH8QPrel4G_Pt-27" edge="1">
          <mxGeometry relative="1" as="geometry">
            <mxPoint x="350" y="620" as="targetPoint" />
            <mxPoint x="480" y="570" as="sourcePoint" />
            <Array as="points">
              <mxPoint x="480" y="590" />
              <mxPoint x="440" y="590" />
            </Array>
          </mxGeometry>
        </mxCell>
        <mxCell id="QMf7iVNrH8QPrel4G_Pt-34" style="edgeStyle=orthogonalEdgeStyle;rounded=0;orthogonalLoop=1;jettySize=auto;html=1;strokeWidth=1;entryX=0.5;entryY=0;entryDx=0;entryDy=0;" parent="QMf7iVNrH8QPrel4G_Pt-1" target="QMf7iVNrH8QPrel4G_Pt-21" edge="1">
          <mxGeometry relative="1" as="geometry">
            <mxPoint x="450" y="620" as="targetPoint" />
            <mxPoint x="480" y="570" as="sourcePoint" />
            <Array as="points">
              <mxPoint x="480" y="590" />
              <mxPoint x="540" y="590" />
            </Array>
          </mxGeometry>
        </mxCell>
        <mxCell id="QMf7iVNrH8QPrel4G_Pt-35" style="edgeStyle=orthogonalEdgeStyle;rounded=0;orthogonalLoop=1;jettySize=auto;html=1;strokeWidth=1;entryX=0.5;entryY=0;entryDx=0;entryDy=0;" parent="QMf7iVNrH8QPrel4G_Pt-1" target="QMf7iVNrH8QPrel4G_Pt-25" edge="1">
          <mxGeometry relative="1" as="geometry">
            <mxPoint x="550" y="620" as="targetPoint" />
            <mxPoint x="480" y="570" as="sourcePoint" />
            <Array as="points">
              <mxPoint x="640" y="590" />
            </Array>
          </mxGeometry>
        </mxCell>
        <mxCell id="QMf7iVNrH8QPrel4G_Pt-36" style="edgeStyle=orthogonalEdgeStyle;rounded=0;orthogonalLoop=1;jettySize=auto;html=1;strokeWidth=1;entryX=0.5;entryY=0;entryDx=0;entryDy=0;exitX=0.5;exitY=1;exitDx=0;exitDy=0;" parent="QMf7iVNrH8QPrel4G_Pt-1" source="QMf7iVNrH8QPrel4G_Pt-25" target="QMf7iVNrH8QPrel4G_Pt-3" edge="1">
          <mxGeometry relative="1" as="geometry">
            <mxPoint x="250.28571428571422" y="620.1428571428571" as="targetPoint" />
            <mxPoint x="490.2857142857142" y="569.8571428571429" as="sourcePoint" />
            <Array as="points">
              <mxPoint x="640" y="670" />
              <mxPoint x="440" y="670" />
            </Array>
          </mxGeometry>
        </mxCell>
        <mxCell id="QMf7iVNrH8QPrel4G_Pt-37" style="edgeStyle=orthogonalEdgeStyle;rounded=0;orthogonalLoop=1;jettySize=auto;html=1;entryX=0.5;entryY=0;entryDx=0;entryDy=0;strokeWidth=1;" parent="QMf7iVNrH8QPrel4G_Pt-1" source="QMf7iVNrH8QPrel4G_Pt-22" target="QMf7iVNrH8QPrel4G_Pt-3" edge="1">
          <mxGeometry relative="1" as="geometry">
            <Array as="points">
              <mxPoint x="540" y="670" />
              <mxPoint x="440" y="670" />
            </Array>
          </mxGeometry>
        </mxCell>
        <mxCell id="cUzKjq_6s69C1_YRLNm3-0" value="Title/Diagram" parent="QMf7iVNrH8QPrel4G_Pt-0" />
        <mxCell id="QMf7iVNrH8QPrel4G_Pt-2" value="&lt;font style=&quot;font-size: 12px&quot;&gt;&lt;span style=&quot;font-size: 12px&quot;&gt;Diagram: Media Logical Module -&amp;nbsp;&lt;/span&gt;Sequence - Resource State&lt;/font&gt;" style="text;strokeColor=none;fillColor=none;html=1;fontSize=12;fontStyle=2;verticalAlign=middle;align=left;shadow=0;glass=0;comic=0;opacity=30;fontColor=#808080;" parent="cUzKjq_6s69C1_YRLNm3-0" vertex="1">
          <mxGeometry x="120" y="740" width="520" height="20" as="geometry" />
        </mxCell>
      </root>
    </mxGraphModel>
  </diagram>
  <diagram id="Q0Dpt5j54eI-D6svVRyB" name="Page-367">
    <mxGraphModel dx="1886" dy="818" grid="1" gridSize="10" guides="1" tooltips="1" connect="1" arrows="1" fold="1" page="1" pageScale="1" pageWidth="827" pageHeight="1169" math="0" shadow="0">
      <root>
        <mxCell id="n9mQzbEkfYEktkVltJ9o-0" />
        <mxCell id="n9mQzbEkfYEktkVltJ9o-1" value="Diagram" parent="n9mQzbEkfYEktkVltJ9o-0" />
        <mxCell id="n9mQzbEkfYEktkVltJ9o-2" style="rounded=0;orthogonalLoop=1;jettySize=auto;html=1;exitX=1;exitY=0.5;exitDx=0;exitDy=0;entryX=0;entryY=0.5;entryDx=0;entryDy=0;fontSize=9;" parent="n9mQzbEkfYEktkVltJ9o-1" source="n9mQzbEkfYEktkVltJ9o-4" target="n9mQzbEkfYEktkVltJ9o-26" edge="1">
          <mxGeometry relative="1" as="geometry">
            <mxPoint x="389.8571428571429" y="228.6428571428571" as="targetPoint" />
          </mxGeometry>
        </mxCell>
        <mxCell id="n9mQzbEkfYEktkVltJ9o-3" value="Developers" style="swimlane;fontSize=9;fontColor=#999999;strokeColor=#B3B3B3;dashed=1;collapsible=0;" parent="n9mQzbEkfYEktkVltJ9o-1" vertex="1">
          <mxGeometry x="120" y="160" width="160" height="880" as="geometry">
            <mxRectangle x="40" y="90" width="160" height="23" as="alternateBounds" />
          </mxGeometry>
        </mxCell>
        <mxCell id="n9mQzbEkfYEktkVltJ9o-4" value="Publish&amp;nbsp;&lt;br&gt;for Approval" style="shape=ext;rounded=1;html=1;whiteSpace=wrap;fontSize=10;" parent="n9mQzbEkfYEktkVltJ9o-3" vertex="1">
          <mxGeometry x="40" y="59.5" width="80" height="20" as="geometry" />
        </mxCell>
        <mxCell id="n9mQzbEkfYEktkVltJ9o-5" value="from default flow" style="edgeStyle=orthogonalEdgeStyle;rounded=0;jumpStyle=arc;orthogonalLoop=1;jettySize=auto;html=1;fontSize=9;dashed=1;entryX=0.5;entryY=0;entryDx=0;entryDy=0;" parent="n9mQzbEkfYEktkVltJ9o-3" target="n9mQzbEkfYEktkVltJ9o-4" edge="1">
          <mxGeometry x="0.6092" y="-20" relative="1" as="geometry">
            <mxPoint x="80" y="40" as="sourcePoint" />
            <mxPoint x="530.1428571428571" y="109.78571428571433" as="targetPoint" />
            <Array as="points">
              <mxPoint x="80" y="49.5" />
              <mxPoint x="80" y="49.5" />
            </Array>
            <mxPoint x="20" y="-20" as="offset" />
          </mxGeometry>
        </mxCell>
        <mxCell id="n9mQzbEkfYEktkVltJ9o-6" value="" style="edgeStyle=orthogonalEdgeStyle;rounded=0;jumpStyle=arc;orthogonalLoop=1;jettySize=auto;html=1;fontSize=9;dashed=1;exitX=0.5;exitY=1;exitDx=0;exitDy=0;entryX=0.5;entryY=0;entryDx=0;entryDy=0;" parent="n9mQzbEkfYEktkVltJ9o-3" source="n9mQzbEkfYEktkVltJ9o-7" target="n9mQzbEkfYEktkVltJ9o-12" edge="1">
          <mxGeometry relative="1" as="geometry">
            <mxPoint x="160" y="410" as="sourcePoint" />
            <mxPoint x="80" y="150" as="targetPoint" />
            <Array as="points">
              <mxPoint x="180" y="360" />
              <mxPoint x="140" y="360" />
              <mxPoint x="140" y="100" />
              <mxPoint x="80" y="100" />
            </Array>
          </mxGeometry>
        </mxCell>
        <mxCell id="n9mQzbEkfYEktkVltJ9o-7" value="Reject" style="shape=ext;rounded=1;html=1;whiteSpace=wrap;fontSize=10;" parent="n9mQzbEkfYEktkVltJ9o-3" vertex="1">
          <mxGeometry x="160" y="330" width="40" height="20" as="geometry" />
        </mxCell>
        <mxCell id="n9mQzbEkfYEktkVltJ9o-8" style="edgeStyle=orthogonalEdgeStyle;rounded=0;jumpStyle=arc;orthogonalLoop=1;jettySize=auto;html=1;entryX=0.5;entryY=0;entryDx=0;entryDy=0;entryPerimeter=0;startArrow=none;startFill=0;endArrow=none;endFill=0;strokeColor=#000000;fontSize=12;fontColor=#666666;" parent="n9mQzbEkfYEktkVltJ9o-3" source="n9mQzbEkfYEktkVltJ9o-9" target="n9mQzbEkfYEktkVltJ9o-15" edge="1">
          <mxGeometry relative="1" as="geometry" />
        </mxCell>
        <mxCell id="n9mQzbEkfYEktkVltJ9o-9" value="Yes" style="shape=ext;rounded=1;html=1;whiteSpace=wrap;fontSize=10;" parent="n9mQzbEkfYEktkVltJ9o-3" vertex="1">
          <mxGeometry x="90" y="229" width="40" height="20" as="geometry" />
        </mxCell>
        <mxCell id="n9mQzbEkfYEktkVltJ9o-10" style="edgeStyle=orthogonalEdgeStyle;rounded=0;jumpStyle=arc;orthogonalLoop=1;jettySize=auto;html=1;entryX=0.513;entryY=-0.742;entryDx=0;entryDy=0;entryPerimeter=0;startArrow=none;startFill=0;endArrow=none;endFill=0;strokeColor=#000000;fontSize=12;fontColor=#666666;" parent="n9mQzbEkfYEktkVltJ9o-3" source="n9mQzbEkfYEktkVltJ9o-11" target="n9mQzbEkfYEktkVltJ9o-4" edge="1">
          <mxGeometry relative="1" as="geometry">
            <Array as="points">
              <mxPoint x="50" y="260" />
              <mxPoint x="20" y="260" />
              <mxPoint x="20" y="45" />
            </Array>
          </mxGeometry>
        </mxCell>
        <mxCell id="n9mQzbEkfYEktkVltJ9o-11" value="No" style="shape=ext;rounded=1;html=1;whiteSpace=wrap;fontSize=10;" parent="n9mQzbEkfYEktkVltJ9o-3" vertex="1">
          <mxGeometry x="30" y="229" width="40" height="20" as="geometry" />
        </mxCell>
        <mxCell id="n9mQzbEkfYEktkVltJ9o-12" value="Abandon" style="shape=mxgraph.bpmn.shape;html=1;verticalLabelPosition=bottom;labelBackgroundColor=#ffffff;verticalAlign=top;align=center;perimeter=rhombusPerimeter;background=gateway;outlineConnect=0;outline=none;symbol=exclusiveGw;fontSize=10;" parent="n9mQzbEkfYEktkVltJ9o-3" vertex="1">
          <mxGeometry x="70" y="170" width="20" height="21" as="geometry" />
        </mxCell>
        <mxCell id="n9mQzbEkfYEktkVltJ9o-13" style="edgeStyle=orthogonalEdgeStyle;rounded=0;orthogonalLoop=1;jettySize=auto;html=1;entryX=0.5;entryY=0;entryDx=0;entryDy=0;fontSize=9;exitX=0.5;exitY=1;exitDx=0;exitDy=0;" parent="n9mQzbEkfYEktkVltJ9o-3" source="n9mQzbEkfYEktkVltJ9o-12" target="n9mQzbEkfYEktkVltJ9o-9" edge="1">
          <mxGeometry relative="1" as="geometry">
            <Array as="points">
              <mxPoint x="80" y="210" />
              <mxPoint x="110" y="210" />
            </Array>
          </mxGeometry>
        </mxCell>
        <mxCell id="n9mQzbEkfYEktkVltJ9o-14" style="edgeStyle=orthogonalEdgeStyle;rounded=0;orthogonalLoop=1;jettySize=auto;html=1;entryX=0.5;entryY=0;entryDx=0;entryDy=0;fontSize=9;exitX=0.5;exitY=1;exitDx=0;exitDy=0;" parent="n9mQzbEkfYEktkVltJ9o-3" source="n9mQzbEkfYEktkVltJ9o-12" target="n9mQzbEkfYEktkVltJ9o-11" edge="1">
          <mxGeometry relative="1" as="geometry">
            <Array as="points">
              <mxPoint x="80" y="210" />
              <mxPoint x="50" y="210" />
            </Array>
          </mxGeometry>
        </mxCell>
        <mxCell id="n9mQzbEkfYEktkVltJ9o-15" value="" style="strokeWidth=2;html=1;shape=mxgraph.flowchart.terminator;whiteSpace=wrap;fillColor=none;fontSize=12;fontColor=#666666;opacity=70;" parent="n9mQzbEkfYEktkVltJ9o-3" vertex="1">
          <mxGeometry x="90" y="280" width="40" height="20" as="geometry" />
        </mxCell>
        <mxCell id="n9mQzbEkfYEktkVltJ9o-16" value="Reviewers" style="swimlane;fontSize=9;fontColor=#999999;strokeColor=#B3B3B3;dashed=1;collapsible=0;" parent="n9mQzbEkfYEktkVltJ9o-1" vertex="1">
          <mxGeometry x="280" y="160" width="100" height="880" as="geometry">
            <mxRectangle x="200" y="90" width="100" height="23" as="alternateBounds" />
          </mxGeometry>
        </mxCell>
        <mxCell id="n9mQzbEkfYEktkVltJ9o-17" value="Approvers" style="swimlane;fontSize=9;fontColor=#999999;strokeColor=#B3B3B3;dashed=1;collapsible=0;" parent="n9mQzbEkfYEktkVltJ9o-1" vertex="1">
          <mxGeometry x="380" y="160" width="100" height="880" as="geometry">
            <mxRectangle x="300" y="90" width="120" height="23" as="alternateBounds" />
          </mxGeometry>
        </mxCell>
        <mxCell id="n9mQzbEkfYEktkVltJ9o-18" value="Consumers" style="swimlane;fontSize=9;fontColor=#999999;strokeColor=#B3B3B3;dashed=1;collapsible=0;" parent="n9mQzbEkfYEktkVltJ9o-1" vertex="1">
          <mxGeometry x="480" y="160" width="120" height="880" as="geometry">
            <mxRectangle x="460" y="90" width="180" height="23" as="alternateBounds" />
          </mxGeometry>
        </mxCell>
        <mxCell id="n9mQzbEkfYEktkVltJ9o-19" value="" style="edgeStyle=orthogonalEdgeStyle;rounded=0;jumpStyle=arc;orthogonalLoop=1;jettySize=auto;html=1;fontSize=9;dashed=1;exitX=0.5;exitY=1;exitDx=0;exitDy=0;entryX=0.5;entryY=0;entryDx=0;entryDy=0;" parent="n9mQzbEkfYEktkVltJ9o-1" source="n9mQzbEkfYEktkVltJ9o-64" target="n9mQzbEkfYEktkVltJ9o-12" edge="1">
          <mxGeometry relative="1" as="geometry">
            <mxPoint x="280" y="1090" as="sourcePoint" />
            <mxPoint x="200" y="310" as="targetPoint" />
            <Array as="points">
              <mxPoint x="300" y="890" />
              <mxPoint x="260" y="890" />
              <mxPoint x="260" y="260" />
              <mxPoint x="200" y="260" />
            </Array>
          </mxGeometry>
        </mxCell>
        <mxCell id="n9mQzbEkfYEktkVltJ9o-20" value="" style="edgeStyle=orthogonalEdgeStyle;rounded=0;jumpStyle=arc;orthogonalLoop=1;jettySize=auto;html=1;fontSize=9;dashed=1;exitX=0.5;exitY=1;exitDx=0;exitDy=0;entryX=0.5;entryY=0;entryDx=0;entryDy=0;" parent="n9mQzbEkfYEktkVltJ9o-1" source="n9mQzbEkfYEktkVltJ9o-72" target="n9mQzbEkfYEktkVltJ9o-12" edge="1">
          <mxGeometry relative="1" as="geometry">
            <mxPoint x="310" y="890" as="sourcePoint" />
            <mxPoint x="200" y="310" as="targetPoint" />
            <Array as="points">
              <mxPoint x="400" y="980" />
              <mxPoint x="260" y="980" />
              <mxPoint x="260" y="260" />
              <mxPoint x="200" y="260" />
            </Array>
          </mxGeometry>
        </mxCell>
        <mxCell id="n9mQzbEkfYEktkVltJ9o-22" style="edgeStyle=orthogonalEdgeStyle;rounded=0;jumpStyle=arc;orthogonalLoop=1;jettySize=auto;html=1;entryX=0.5;entryY=0;entryDx=0;entryDy=0;fontSize=9;fontColor=#999999;" parent="n9mQzbEkfYEktkVltJ9o-1" source="n9mQzbEkfYEktkVltJ9o-23" target="n9mQzbEkfYEktkVltJ9o-31" edge="1">
          <mxGeometry relative="1" as="geometry">
            <Array as="points">
              <mxPoint x="360" y="309" />
              <mxPoint x="330" y="309" />
            </Array>
          </mxGeometry>
        </mxCell>
        <mxCell id="n9mQzbEkfYEktkVltJ9o-23" value="Approval" style="shape=ext;rounded=1;html=1;whiteSpace=wrap;fontSize=10;" parent="n9mQzbEkfYEktkVltJ9o-1" vertex="1">
          <mxGeometry x="340" y="279" width="40" height="20" as="geometry" />
        </mxCell>
        <mxCell id="n9mQzbEkfYEktkVltJ9o-24" value="Reject" style="shape=ext;rounded=1;html=1;whiteSpace=wrap;fontSize=10;" parent="n9mQzbEkfYEktkVltJ9o-1" vertex="1">
          <mxGeometry x="280" y="279" width="40" height="20" as="geometry" />
        </mxCell>
        <mxCell id="n9mQzbEkfYEktkVltJ9o-25" value="" style="edgeStyle=orthogonalEdgeStyle;rounded=0;jumpStyle=arc;orthogonalLoop=1;jettySize=auto;html=1;fontSize=9;dashed=1;exitX=0.5;exitY=1;exitDx=0;exitDy=0;entryX=0.5;entryY=0;entryDx=0;entryDy=0;" parent="n9mQzbEkfYEktkVltJ9o-1" source="n9mQzbEkfYEktkVltJ9o-24" target="n9mQzbEkfYEktkVltJ9o-12" edge="1">
          <mxGeometry x="-0.5166" relative="1" as="geometry">
            <mxPoint x="260" y="299" as="sourcePoint" />
            <mxPoint x="200" y="310" as="targetPoint" />
            <Array as="points">
              <mxPoint x="300" y="310" />
              <mxPoint x="260" y="310" />
              <mxPoint x="260" y="260" />
              <mxPoint x="200" y="260" />
            </Array>
            <mxPoint as="offset" />
          </mxGeometry>
        </mxCell>
        <mxCell id="n9mQzbEkfYEktkVltJ9o-26" value="Structure Type" style="shape=mxgraph.bpmn.shape;html=1;verticalLabelPosition=bottom;labelBackgroundColor=#ffffff;verticalAlign=top;align=center;perimeter=rhombusPerimeter;background=gateway;outlineConnect=0;outline=none;symbol=exclusiveGw;fontSize=10;" parent="n9mQzbEkfYEktkVltJ9o-1" vertex="1">
          <mxGeometry x="320" y="220" width="20" height="21" as="geometry" />
        </mxCell>
        <mxCell id="n9mQzbEkfYEktkVltJ9o-27" style="edgeStyle=orthogonalEdgeStyle;rounded=0;orthogonalLoop=1;jettySize=auto;html=1;entryX=0.5;entryY=0;entryDx=0;entryDy=0;fontSize=9;exitX=0.5;exitY=1;exitDx=0;exitDy=0;" parent="n9mQzbEkfYEktkVltJ9o-1" source="n9mQzbEkfYEktkVltJ9o-26" target="n9mQzbEkfYEktkVltJ9o-23" edge="1">
          <mxGeometry relative="1" as="geometry">
            <Array as="points">
              <mxPoint x="330" y="260" />
              <mxPoint x="360" y="260" />
            </Array>
          </mxGeometry>
        </mxCell>
        <mxCell id="n9mQzbEkfYEktkVltJ9o-28" style="edgeStyle=orthogonalEdgeStyle;rounded=0;orthogonalLoop=1;jettySize=auto;html=1;entryX=0.5;entryY=0;entryDx=0;entryDy=0;fontSize=9;exitX=0.5;exitY=1;exitDx=0;exitDy=0;" parent="n9mQzbEkfYEktkVltJ9o-1" source="n9mQzbEkfYEktkVltJ9o-26" target="n9mQzbEkfYEktkVltJ9o-24" edge="1">
          <mxGeometry relative="1" as="geometry">
            <Array as="points">
              <mxPoint x="330" y="260" />
              <mxPoint x="300" y="260" />
            </Array>
          </mxGeometry>
        </mxCell>
        <mxCell id="n9mQzbEkfYEktkVltJ9o-29" style="edgeStyle=orthogonalEdgeStyle;rounded=0;jumpStyle=arc;orthogonalLoop=1;jettySize=auto;html=1;entryX=0.5;entryY=0;entryDx=0;entryDy=0;fontSize=9;fontColor=#999999;" parent="n9mQzbEkfYEktkVltJ9o-1" source="n9mQzbEkfYEktkVltJ9o-31" target="n9mQzbEkfYEktkVltJ9o-36" edge="1">
          <mxGeometry relative="1" as="geometry" />
        </mxCell>
        <mxCell id="n9mQzbEkfYEktkVltJ9o-30" style="edgeStyle=orthogonalEdgeStyle;rounded=0;jumpStyle=arc;orthogonalLoop=1;jettySize=auto;html=1;entryX=0.5;entryY=0;entryDx=0;entryDy=0;fontSize=9;fontColor=#999999;" parent="n9mQzbEkfYEktkVltJ9o-1" source="n9mQzbEkfYEktkVltJ9o-31" target="n9mQzbEkfYEktkVltJ9o-37" edge="1">
          <mxGeometry relative="1" as="geometry" />
        </mxCell>
        <mxCell id="n9mQzbEkfYEktkVltJ9o-31" value="Content Quality" style="shape=mxgraph.bpmn.shape;html=1;verticalLabelPosition=bottom;labelBackgroundColor=#ffffff;verticalAlign=top;align=center;perimeter=rhombusPerimeter;background=gateway;outlineConnect=0;outline=none;symbol=exclusiveGw;fontSize=10;" parent="n9mQzbEkfYEktkVltJ9o-1" vertex="1">
          <mxGeometry x="320" y="329" width="20" height="21" as="geometry" />
        </mxCell>
        <mxCell id="n9mQzbEkfYEktkVltJ9o-32" style="edgeStyle=orthogonalEdgeStyle;rounded=0;jumpStyle=arc;orthogonalLoop=1;jettySize=auto;html=1;entryX=0.5;entryY=0;entryDx=0;entryDy=0;fontSize=9;fontColor=#999999;" parent="n9mQzbEkfYEktkVltJ9o-1" source="n9mQzbEkfYEktkVltJ9o-34" target="n9mQzbEkfYEktkVltJ9o-40" edge="1">
          <mxGeometry relative="1" as="geometry">
            <Array as="points">
              <mxPoint x="330" y="470" />
              <mxPoint x="360" y="470" />
            </Array>
          </mxGeometry>
        </mxCell>
        <mxCell id="n9mQzbEkfYEktkVltJ9o-33" style="edgeStyle=orthogonalEdgeStyle;rounded=0;jumpStyle=arc;orthogonalLoop=1;jettySize=auto;html=1;entryX=0.5;entryY=0;entryDx=0;entryDy=0;fontSize=9;fontColor=#999999;" parent="n9mQzbEkfYEktkVltJ9o-1" source="n9mQzbEkfYEktkVltJ9o-34" target="n9mQzbEkfYEktkVltJ9o-7" edge="1">
          <mxGeometry relative="1" as="geometry">
            <Array as="points">
              <mxPoint x="330" y="470" />
              <mxPoint x="300" y="470" />
            </Array>
          </mxGeometry>
        </mxCell>
        <mxCell id="n9mQzbEkfYEktkVltJ9o-34" value="Description" style="shape=mxgraph.bpmn.shape;html=1;verticalLabelPosition=bottom;labelBackgroundColor=#ffffff;verticalAlign=top;align=center;perimeter=rhombusPerimeter;background=gateway;outlineConnect=0;outline=none;symbol=exclusiveGw;fontSize=10;" parent="n9mQzbEkfYEktkVltJ9o-1" vertex="1">
          <mxGeometry x="320" y="430" width="20" height="20" as="geometry" />
        </mxCell>
        <mxCell id="n9mQzbEkfYEktkVltJ9o-35" style="edgeStyle=orthogonalEdgeStyle;rounded=0;jumpStyle=arc;orthogonalLoop=1;jettySize=auto;html=1;entryX=0.5;entryY=0;entryDx=0;entryDy=0;fontSize=9;fontColor=#999999;" parent="n9mQzbEkfYEktkVltJ9o-1" source="n9mQzbEkfYEktkVltJ9o-36" target="n9mQzbEkfYEktkVltJ9o-34" edge="1">
          <mxGeometry relative="1" as="geometry">
            <Array as="points">
              <mxPoint x="360" y="420" />
              <mxPoint x="330" y="420" />
            </Array>
          </mxGeometry>
        </mxCell>
        <mxCell id="n9mQzbEkfYEktkVltJ9o-36" value="Approval" style="shape=ext;rounded=1;html=1;whiteSpace=wrap;fontSize=10;" parent="n9mQzbEkfYEktkVltJ9o-1" vertex="1">
          <mxGeometry x="340" y="390" width="40" height="20" as="geometry" />
        </mxCell>
        <mxCell id="n9mQzbEkfYEktkVltJ9o-37" value="Reject" style="shape=ext;rounded=1;html=1;whiteSpace=wrap;fontSize=10;" parent="n9mQzbEkfYEktkVltJ9o-1" vertex="1">
          <mxGeometry x="280" y="390" width="40" height="20" as="geometry" />
        </mxCell>
        <mxCell id="n9mQzbEkfYEktkVltJ9o-38" value="" style="edgeStyle=orthogonalEdgeStyle;rounded=0;jumpStyle=arc;orthogonalLoop=1;jettySize=auto;html=1;fontSize=9;dashed=1;exitX=0.5;exitY=1;exitDx=0;exitDy=0;" parent="n9mQzbEkfYEktkVltJ9o-1" source="n9mQzbEkfYEktkVltJ9o-37" target="n9mQzbEkfYEktkVltJ9o-12" edge="1">
          <mxGeometry relative="1" as="geometry">
            <mxPoint x="300" y="450" as="sourcePoint" />
            <mxPoint x="200" y="310" as="targetPoint" />
            <Array as="points">
              <mxPoint x="300" y="420" />
              <mxPoint x="260" y="420" />
              <mxPoint x="260" y="260" />
              <mxPoint x="200" y="260" />
            </Array>
          </mxGeometry>
        </mxCell>
        <mxCell id="n9mQzbEkfYEktkVltJ9o-39" style="edgeStyle=orthogonalEdgeStyle;rounded=0;jumpStyle=arc;orthogonalLoop=1;jettySize=auto;html=1;entryX=0.5;entryY=0;entryDx=0;entryDy=0;fontSize=9;fontColor=#999999;exitX=0.5;exitY=1;exitDx=0;exitDy=0;" parent="n9mQzbEkfYEktkVltJ9o-1" source="n9mQzbEkfYEktkVltJ9o-40" target="n9mQzbEkfYEktkVltJ9o-43" edge="1">
          <mxGeometry relative="1" as="geometry">
            <Array as="points">
              <mxPoint x="360" y="520" />
              <mxPoint x="330" y="520" />
            </Array>
          </mxGeometry>
        </mxCell>
        <mxCell id="n9mQzbEkfYEktkVltJ9o-40" value="Approval" style="shape=ext;rounded=1;html=1;whiteSpace=wrap;fontSize=10;" parent="n9mQzbEkfYEktkVltJ9o-1" vertex="1">
          <mxGeometry x="340" y="490" width="40" height="20" as="geometry" />
        </mxCell>
        <mxCell id="n9mQzbEkfYEktkVltJ9o-41" style="edgeStyle=orthogonalEdgeStyle;rounded=0;jumpStyle=arc;orthogonalLoop=1;jettySize=auto;html=1;entryX=0.5;entryY=0;entryDx=0;entryDy=0;fontSize=9;fontColor=#999999;" parent="n9mQzbEkfYEktkVltJ9o-1" source="n9mQzbEkfYEktkVltJ9o-43" target="n9mQzbEkfYEktkVltJ9o-45" edge="1">
          <mxGeometry relative="1" as="geometry">
            <Array as="points">
              <mxPoint x="330" y="570" />
              <mxPoint x="360" y="570" />
            </Array>
          </mxGeometry>
        </mxCell>
        <mxCell id="n9mQzbEkfYEktkVltJ9o-42" style="edgeStyle=orthogonalEdgeStyle;rounded=0;jumpStyle=arc;orthogonalLoop=1;jettySize=auto;html=1;entryX=0.5;entryY=0;entryDx=0;entryDy=0;fontSize=9;fontColor=#999999;" parent="n9mQzbEkfYEktkVltJ9o-1" source="n9mQzbEkfYEktkVltJ9o-43" target="n9mQzbEkfYEktkVltJ9o-46" edge="1">
          <mxGeometry relative="1" as="geometry">
            <Array as="points">
              <mxPoint x="330" y="570" />
              <mxPoint x="300" y="570" />
            </Array>
          </mxGeometry>
        </mxCell>
        <mxCell id="n9mQzbEkfYEktkVltJ9o-43" value="Classification Metadata" style="shape=mxgraph.bpmn.shape;html=1;verticalLabelPosition=bottom;labelBackgroundColor=#ffffff;verticalAlign=top;align=center;perimeter=rhombusPerimeter;background=gateway;outlineConnect=0;outline=none;symbol=exclusiveGw;fontSize=10;" parent="n9mQzbEkfYEktkVltJ9o-1" vertex="1">
          <mxGeometry x="320" y="530" width="20" height="20" as="geometry" />
        </mxCell>
        <mxCell id="n9mQzbEkfYEktkVltJ9o-44" style="edgeStyle=orthogonalEdgeStyle;rounded=0;jumpStyle=arc;orthogonalLoop=1;jettySize=auto;html=1;entryX=0.5;entryY=0;entryDx=0;entryDy=0;fontSize=9;fontColor=#999999;" parent="n9mQzbEkfYEktkVltJ9o-1" source="n9mQzbEkfYEktkVltJ9o-45" target="n9mQzbEkfYEktkVltJ9o-50" edge="1">
          <mxGeometry relative="1" as="geometry">
            <Array as="points">
              <mxPoint x="360" y="610" />
              <mxPoint x="330" y="610" />
            </Array>
          </mxGeometry>
        </mxCell>
        <mxCell id="n9mQzbEkfYEktkVltJ9o-45" value="Approval" style="shape=ext;rounded=1;html=1;whiteSpace=wrap;fontSize=10;" parent="n9mQzbEkfYEktkVltJ9o-1" vertex="1">
          <mxGeometry x="340" y="580" width="40" height="20" as="geometry" />
        </mxCell>
        <mxCell id="n9mQzbEkfYEktkVltJ9o-46" value="Reject" style="shape=ext;rounded=1;html=1;whiteSpace=wrap;fontSize=10;" parent="n9mQzbEkfYEktkVltJ9o-1" vertex="1">
          <mxGeometry x="280" y="580" width="40" height="20" as="geometry" />
        </mxCell>
        <mxCell id="n9mQzbEkfYEktkVltJ9o-47" value="" style="edgeStyle=orthogonalEdgeStyle;rounded=0;jumpStyle=arc;orthogonalLoop=1;jettySize=auto;html=1;fontSize=9;dashed=1;exitX=0.5;exitY=1;exitDx=0;exitDy=0;" parent="n9mQzbEkfYEktkVltJ9o-1" source="n9mQzbEkfYEktkVltJ9o-46" target="n9mQzbEkfYEktkVltJ9o-12" edge="1">
          <mxGeometry relative="1" as="geometry">
            <mxPoint x="579.8571428571429" y="689.4285714285714" as="sourcePoint" />
            <mxPoint x="200" y="310" as="targetPoint" />
            <Array as="points">
              <mxPoint x="300" y="610" />
              <mxPoint x="260" y="610" />
              <mxPoint x="260" y="260" />
              <mxPoint x="200" y="260" />
            </Array>
          </mxGeometry>
        </mxCell>
        <mxCell id="n9mQzbEkfYEktkVltJ9o-48" style="edgeStyle=orthogonalEdgeStyle;rounded=0;jumpStyle=arc;orthogonalLoop=1;jettySize=auto;html=1;entryX=0.5;entryY=0;entryDx=0;entryDy=0;fontSize=9;fontColor=#999999;" parent="n9mQzbEkfYEktkVltJ9o-1" source="n9mQzbEkfYEktkVltJ9o-50" target="n9mQzbEkfYEktkVltJ9o-52" edge="1">
          <mxGeometry relative="1" as="geometry">
            <Array as="points">
              <mxPoint x="330" y="660" />
              <mxPoint x="360" y="660" />
            </Array>
          </mxGeometry>
        </mxCell>
        <mxCell id="n9mQzbEkfYEktkVltJ9o-49" style="edgeStyle=orthogonalEdgeStyle;rounded=0;jumpStyle=arc;orthogonalLoop=1;jettySize=auto;html=1;entryX=0.5;entryY=0;entryDx=0;entryDy=0;fontSize=9;fontColor=#999999;" parent="n9mQzbEkfYEktkVltJ9o-1" source="n9mQzbEkfYEktkVltJ9o-50" target="n9mQzbEkfYEktkVltJ9o-53" edge="1">
          <mxGeometry relative="1" as="geometry">
            <Array as="points">
              <mxPoint x="330" y="660" />
              <mxPoint x="300" y="660" />
            </Array>
          </mxGeometry>
        </mxCell>
        <mxCell id="n9mQzbEkfYEktkVltJ9o-50" value="Terms/Duration of Use" style="shape=mxgraph.bpmn.shape;html=1;verticalLabelPosition=bottom;labelBackgroundColor=#ffffff;verticalAlign=top;align=center;perimeter=rhombusPerimeter;background=gateway;outlineConnect=0;outline=none;symbol=exclusiveGw;fontSize=10;" parent="n9mQzbEkfYEktkVltJ9o-1" vertex="1">
          <mxGeometry x="320" y="620" width="20" height="20" as="geometry" />
        </mxCell>
        <mxCell id="n9mQzbEkfYEktkVltJ9o-51" style="edgeStyle=orthogonalEdgeStyle;rounded=0;jumpStyle=arc;orthogonalLoop=1;jettySize=auto;html=1;fontSize=9;fontColor=#999999;" parent="n9mQzbEkfYEktkVltJ9o-1" source="n9mQzbEkfYEktkVltJ9o-52" target="n9mQzbEkfYEktkVltJ9o-57" edge="1">
          <mxGeometry relative="1" as="geometry">
            <Array as="points">
              <mxPoint x="360" y="710" />
              <mxPoint x="330" y="710" />
            </Array>
          </mxGeometry>
        </mxCell>
        <mxCell id="n9mQzbEkfYEktkVltJ9o-52" value="Approval" style="shape=ext;rounded=1;html=1;whiteSpace=wrap;fontSize=10;" parent="n9mQzbEkfYEktkVltJ9o-1" vertex="1">
          <mxGeometry x="340" y="680" width="40" height="20" as="geometry" />
        </mxCell>
        <mxCell id="n9mQzbEkfYEktkVltJ9o-53" value="Reject" style="shape=ext;rounded=1;html=1;whiteSpace=wrap;fontSize=10;" parent="n9mQzbEkfYEktkVltJ9o-1" vertex="1">
          <mxGeometry x="280" y="680" width="40" height="20" as="geometry" />
        </mxCell>
        <mxCell id="n9mQzbEkfYEktkVltJ9o-54" value="" style="edgeStyle=orthogonalEdgeStyle;rounded=0;jumpStyle=arc;orthogonalLoop=1;jettySize=auto;html=1;fontSize=9;dashed=1;exitX=0.5;exitY=1;exitDx=0;exitDy=0;" parent="n9mQzbEkfYEktkVltJ9o-1" source="n9mQzbEkfYEktkVltJ9o-53" target="n9mQzbEkfYEktkVltJ9o-12" edge="1">
          <mxGeometry relative="1" as="geometry">
            <mxPoint x="280" y="830" as="sourcePoint" />
            <mxPoint x="200" y="310" as="targetPoint" />
            <Array as="points">
              <mxPoint x="300" y="710" />
              <mxPoint x="260" y="710" />
              <mxPoint x="260" y="260" />
              <mxPoint x="200" y="260" />
            </Array>
          </mxGeometry>
        </mxCell>
        <mxCell id="n9mQzbEkfYEktkVltJ9o-55" style="edgeStyle=orthogonalEdgeStyle;rounded=0;jumpStyle=arc;orthogonalLoop=1;jettySize=auto;html=1;entryX=0.5;entryY=0;entryDx=0;entryDy=0;fontSize=9;fontColor=#999999;" parent="n9mQzbEkfYEktkVltJ9o-1" source="n9mQzbEkfYEktkVltJ9o-57" target="n9mQzbEkfYEktkVltJ9o-59" edge="1">
          <mxGeometry relative="1" as="geometry">
            <Array as="points">
              <mxPoint x="330" y="760" />
              <mxPoint x="360" y="760" />
            </Array>
          </mxGeometry>
        </mxCell>
        <mxCell id="n9mQzbEkfYEktkVltJ9o-56" style="edgeStyle=orthogonalEdgeStyle;rounded=0;jumpStyle=arc;orthogonalLoop=1;jettySize=auto;html=1;entryX=0.5;entryY=0;entryDx=0;entryDy=0;fontSize=9;fontColor=#999999;" parent="n9mQzbEkfYEktkVltJ9o-1" source="n9mQzbEkfYEktkVltJ9o-57" target="n9mQzbEkfYEktkVltJ9o-65" edge="1">
          <mxGeometry relative="1" as="geometry">
            <Array as="points">
              <mxPoint x="330" y="760" />
              <mxPoint x="300" y="760" />
            </Array>
          </mxGeometry>
        </mxCell>
        <mxCell id="n9mQzbEkfYEktkVltJ9o-57" value="Outcome Defined" style="shape=mxgraph.bpmn.shape;html=1;verticalLabelPosition=bottom;labelBackgroundColor=#ffffff;verticalAlign=top;align=center;perimeter=rhombusPerimeter;background=gateway;outlineConnect=0;outline=none;symbol=exclusiveGw;fontSize=10;" parent="n9mQzbEkfYEktkVltJ9o-1" vertex="1">
          <mxGeometry x="320" y="720" width="20" height="20" as="geometry" />
        </mxCell>
        <mxCell id="n9mQzbEkfYEktkVltJ9o-58" style="edgeStyle=orthogonalEdgeStyle;rounded=0;jumpStyle=arc;orthogonalLoop=1;jettySize=auto;html=1;entryX=0.5;entryY=0;entryDx=0;entryDy=0;fontSize=9;fontColor=#999999;" parent="n9mQzbEkfYEktkVltJ9o-1" source="n9mQzbEkfYEktkVltJ9o-59" target="n9mQzbEkfYEktkVltJ9o-62" edge="1">
          <mxGeometry relative="1" as="geometry">
            <Array as="points">
              <mxPoint x="360" y="800" />
              <mxPoint x="330" y="800" />
            </Array>
          </mxGeometry>
        </mxCell>
        <mxCell id="n9mQzbEkfYEktkVltJ9o-59" value="Approval" style="shape=ext;rounded=1;html=1;whiteSpace=wrap;fontSize=10;" parent="n9mQzbEkfYEktkVltJ9o-1" vertex="1">
          <mxGeometry x="340" y="770" width="40" height="20" as="geometry" />
        </mxCell>
        <mxCell id="n9mQzbEkfYEktkVltJ9o-60" style="edgeStyle=orthogonalEdgeStyle;rounded=0;jumpStyle=arc;orthogonalLoop=1;jettySize=auto;html=1;entryX=0.5;entryY=0;entryDx=0;entryDy=0;fontSize=9;fontColor=#999999;" parent="n9mQzbEkfYEktkVltJ9o-1" source="n9mQzbEkfYEktkVltJ9o-62" target="n9mQzbEkfYEktkVltJ9o-63" edge="1">
          <mxGeometry relative="1" as="geometry">
            <Array as="points">
              <mxPoint x="330" y="850" />
              <mxPoint x="360" y="850" />
            </Array>
          </mxGeometry>
        </mxCell>
        <mxCell id="n9mQzbEkfYEktkVltJ9o-61" style="edgeStyle=orthogonalEdgeStyle;rounded=0;jumpStyle=arc;orthogonalLoop=1;jettySize=auto;html=1;entryX=0.5;entryY=0;entryDx=0;entryDy=0;fontSize=9;fontColor=#999999;" parent="n9mQzbEkfYEktkVltJ9o-1" source="n9mQzbEkfYEktkVltJ9o-62" target="n9mQzbEkfYEktkVltJ9o-64" edge="1">
          <mxGeometry relative="1" as="geometry">
            <Array as="points">
              <mxPoint x="330" y="850" />
              <mxPoint x="300" y="850" />
            </Array>
          </mxGeometry>
        </mxCell>
        <mxCell id="n9mQzbEkfYEktkVltJ9o-62" value="Attribution" style="shape=mxgraph.bpmn.shape;html=1;verticalLabelPosition=bottom;labelBackgroundColor=#ffffff;verticalAlign=top;align=center;perimeter=rhombusPerimeter;background=gateway;outlineConnect=0;outline=none;symbol=exclusiveGw;fontSize=10;" parent="n9mQzbEkfYEktkVltJ9o-1" vertex="1">
          <mxGeometry x="320" y="810" width="20" height="20" as="geometry" />
        </mxCell>
        <mxCell id="n9mQzbEkfYEktkVltJ9o-63" value="Approval" style="shape=ext;rounded=1;html=1;whiteSpace=wrap;fontSize=10;" parent="n9mQzbEkfYEktkVltJ9o-1" vertex="1">
          <mxGeometry x="340" y="860" width="40" height="20" as="geometry" />
        </mxCell>
        <mxCell id="n9mQzbEkfYEktkVltJ9o-64" value="Reject" style="shape=ext;rounded=1;html=1;whiteSpace=wrap;fontSize=10;" parent="n9mQzbEkfYEktkVltJ9o-1" vertex="1">
          <mxGeometry x="280" y="860" width="40" height="20" as="geometry" />
        </mxCell>
        <mxCell id="n9mQzbEkfYEktkVltJ9o-65" value="Reject" style="shape=ext;rounded=1;html=1;whiteSpace=wrap;fontSize=10;" parent="n9mQzbEkfYEktkVltJ9o-1" vertex="1">
          <mxGeometry x="280" y="770" width="40" height="20" as="geometry" />
        </mxCell>
        <mxCell id="n9mQzbEkfYEktkVltJ9o-66" value="" style="edgeStyle=orthogonalEdgeStyle;rounded=0;jumpStyle=arc;orthogonalLoop=1;jettySize=auto;html=1;fontSize=9;dashed=1;exitX=0.5;exitY=1;exitDx=0;exitDy=0;" parent="n9mQzbEkfYEktkVltJ9o-1" source="n9mQzbEkfYEktkVltJ9o-65" target="n9mQzbEkfYEktkVltJ9o-12" edge="1">
          <mxGeometry relative="1" as="geometry">
            <mxPoint x="579.8571428571429" y="970" as="sourcePoint" />
            <mxPoint x="200" y="310" as="targetPoint" />
            <Array as="points">
              <mxPoint x="300" y="800" />
              <mxPoint x="260" y="800" />
              <mxPoint x="260" y="260" />
              <mxPoint x="200" y="260" />
            </Array>
          </mxGeometry>
        </mxCell>
        <mxCell id="n9mQzbEkfYEktkVltJ9o-67" style="edgeStyle=orthogonalEdgeStyle;rounded=0;jumpStyle=arc;orthogonalLoop=1;jettySize=auto;html=1;entryX=0.5;entryY=0;entryDx=0;entryDy=0;fontSize=9;fontColor=#999999;" parent="n9mQzbEkfYEktkVltJ9o-1" source="n9mQzbEkfYEktkVltJ9o-69" target="n9mQzbEkfYEktkVltJ9o-71" edge="1">
          <mxGeometry relative="1" as="geometry">
            <Array as="points">
              <mxPoint x="430" y="940" />
              <mxPoint x="460" y="940" />
            </Array>
          </mxGeometry>
        </mxCell>
        <mxCell id="n9mQzbEkfYEktkVltJ9o-68" style="edgeStyle=orthogonalEdgeStyle;rounded=0;jumpStyle=arc;orthogonalLoop=1;jettySize=auto;html=1;entryX=0.5;entryY=0;entryDx=0;entryDy=0;fontSize=9;fontColor=#999999;" parent="n9mQzbEkfYEktkVltJ9o-1" source="n9mQzbEkfYEktkVltJ9o-69" target="n9mQzbEkfYEktkVltJ9o-72" edge="1">
          <mxGeometry relative="1" as="geometry">
            <Array as="points">
              <mxPoint x="430" y="940" />
              <mxPoint x="400" y="940" />
            </Array>
          </mxGeometry>
        </mxCell>
        <mxCell id="n9mQzbEkfYEktkVltJ9o-69" value="Approve" style="shape=mxgraph.bpmn.shape;html=1;verticalLabelPosition=bottom;labelBackgroundColor=#ffffff;verticalAlign=top;align=center;perimeter=rhombusPerimeter;background=gateway;outlineConnect=0;outline=none;symbol=exclusiveGw;fontSize=10;" parent="n9mQzbEkfYEktkVltJ9o-1" vertex="1">
          <mxGeometry x="420" y="900" width="20" height="20" as="geometry" />
        </mxCell>
        <mxCell id="n9mQzbEkfYEktkVltJ9o-70" style="edgeStyle=orthogonalEdgeStyle;rounded=0;jumpStyle=arc;orthogonalLoop=1;jettySize=auto;html=1;entryX=0.5;entryY=0;entryDx=0;entryDy=0;entryPerimeter=0;startArrow=none;startFill=0;endArrow=none;endFill=0;strokeColor=#000000;fontSize=12;fontColor=#666666;" parent="n9mQzbEkfYEktkVltJ9o-1" source="n9mQzbEkfYEktkVltJ9o-71" target="n9mQzbEkfYEktkVltJ9o-74" edge="1">
          <mxGeometry relative="1" as="geometry" />
        </mxCell>
        <mxCell id="n9mQzbEkfYEktkVltJ9o-71" value="Approval" style="shape=ext;rounded=1;html=1;whiteSpace=wrap;fontSize=10;" parent="n9mQzbEkfYEktkVltJ9o-1" vertex="1">
          <mxGeometry x="440" y="950" width="40" height="20" as="geometry" />
        </mxCell>
        <mxCell id="n9mQzbEkfYEktkVltJ9o-72" value="Reject" style="shape=ext;rounded=1;html=1;whiteSpace=wrap;fontSize=10;" parent="n9mQzbEkfYEktkVltJ9o-1" vertex="1">
          <mxGeometry x="380" y="950" width="40" height="20" as="geometry" />
        </mxCell>
        <mxCell id="n9mQzbEkfYEktkVltJ9o-73" style="edgeStyle=orthogonalEdgeStyle;rounded=0;jumpStyle=arc;orthogonalLoop=1;jettySize=auto;html=1;entryX=0.5;entryY=0;entryDx=0;entryDy=0;fontSize=9;fontColor=#999999;exitX=0.5;exitY=1;exitDx=0;exitDy=0;" parent="n9mQzbEkfYEktkVltJ9o-1" source="n9mQzbEkfYEktkVltJ9o-63" target="n9mQzbEkfYEktkVltJ9o-69" edge="1">
          <mxGeometry relative="1" as="geometry">
            <Array as="points">
              <mxPoint x="370" y="880" />
              <mxPoint x="370" y="890" />
              <mxPoint x="430" y="890" />
            </Array>
            <mxPoint x="369.9999999999999" y="800" as="sourcePoint" />
            <mxPoint x="340" y="820" as="targetPoint" />
          </mxGeometry>
        </mxCell>
        <mxCell id="n9mQzbEkfYEktkVltJ9o-74" value="" style="strokeWidth=2;html=1;shape=mxgraph.flowchart.terminator;whiteSpace=wrap;fillColor=none;fontSize=12;fontColor=#666666;opacity=70;" parent="n9mQzbEkfYEktkVltJ9o-1" vertex="1">
          <mxGeometry x="520" y="990" width="40" height="20" as="geometry" />
        </mxCell>
        <mxCell id="6wg7n1rA-PZf0FMPd7pf-0" value="Title/Diagram" parent="n9mQzbEkfYEktkVltJ9o-0" />
        <mxCell id="n9mQzbEkfYEktkVltJ9o-21" value="&lt;font style=&quot;font-size: 12px&quot;&gt;Diagram: Business Logical Module - Sequences - Media - Approval&lt;/font&gt;" style="text;strokeColor=none;fillColor=none;html=1;fontSize=12;fontStyle=2;verticalAlign=middle;align=left;shadow=0;glass=0;comic=0;opacity=30;fontColor=#808080;" parent="6wg7n1rA-PZf0FMPd7pf-0" vertex="1">
          <mxGeometry x="120" y="1080" width="520" height="20" as="geometry" />
        </mxCell>
      </root>
    </mxGraphModel>
  </diagram>
  <diagram id="jpz8SX5Cjur-Y3WQ5ssj" name="Sequence/Media Logical Module/Media Resource States">
    <mxGraphModel dx="1130" dy="406" grid="1" gridSize="10" guides="1" tooltips="1" connect="1" arrows="1" fold="1" page="1" pageScale="1" pageWidth="827" pageHeight="1169" math="0" shadow="0">
      <root>
        <mxCell id="VAtN4uS4ZIBycqeOR7FW-0" />
        <mxCell id="VAtN4uS4ZIBycqeOR7FW-1" value="Diagram" parent="VAtN4uS4ZIBycqeOR7FW-0" />
        <mxCell id="VAtN4uS4ZIBycqeOR7FW-3" value="" style="shape=mxgraph.bpmn.shape;html=1;verticalLabelPosition=bottom;labelBackgroundColor=#ffffff;verticalAlign=top;align=center;perimeter=ellipsePerimeter;outlineConnect=0;outline=end;symbol=general;" parent="VAtN4uS4ZIBycqeOR7FW-1" vertex="1">
          <mxGeometry x="430" y="700" width="20" height="20" as="geometry" />
        </mxCell>
        <mxCell id="VAtN4uS4ZIBycqeOR7FW-4" style="edgeStyle=orthogonalEdgeStyle;rounded=0;orthogonalLoop=1;jettySize=auto;html=1;entryX=0.5;entryY=0;entryDx=0;entryDy=0;exitX=0.5;exitY=1;exitDx=0;exitDy=0;" parent="VAtN4uS4ZIBycqeOR7FW-1" source="VAtN4uS4ZIBycqeOR7FW-5" target="VAtN4uS4ZIBycqeOR7FW-20" edge="1">
          <mxGeometry relative="1" as="geometry" />
        </mxCell>
        <mxCell id="VAtN4uS4ZIBycqeOR7FW-5" value="Draft" style="swimlane;html=1;fontStyle=1;align=center;verticalAlign=middle;childLayout=stackLayout;horizontal=1;startSize=21;horizontalStack=0;resizeParent=0;resizeLast=1;container=0;fontColor=#000000;collapsible=0;rounded=1;arcSize=10;strokeColor=#B3B3B3;fillColor=none;swimlaneFillColor=none;" parent="VAtN4uS4ZIBycqeOR7FW-1" vertex="1">
          <mxGeometry x="120" y="280" width="80" height="40" as="geometry" />
        </mxCell>
        <mxCell id="VAtN4uS4ZIBycqeOR7FW-6" value="" style="edgeStyle=orthogonalEdgeStyle;html=1;verticalAlign=bottom;endArrow=open;endSize=8;strokeColor=#000000;entryX=0.5;entryY=0;entryDx=0;entryDy=0;" parent="VAtN4uS4ZIBycqeOR7FW-1" source="VAtN4uS4ZIBycqeOR7FW-5" target="VAtN4uS4ZIBycqeOR7FW-9" edge="1">
          <mxGeometry relative="1" as="geometry">
            <mxPoint x="150" y="430" as="targetPoint" />
          </mxGeometry>
        </mxCell>
        <mxCell id="VAtN4uS4ZIBycqeOR7FW-7" value="" style="ellipse;html=1;shape=startState;fillColor=#000000;strokeColor=#000000;" parent="VAtN4uS4ZIBycqeOR7FW-1" vertex="1">
          <mxGeometry x="145" y="210" width="30" height="30" as="geometry" />
        </mxCell>
        <mxCell id="VAtN4uS4ZIBycqeOR7FW-8" value="" style="edgeStyle=orthogonalEdgeStyle;html=1;verticalAlign=bottom;endArrow=open;endSize=8;strokeColor=#000000;entryX=0.5;entryY=0;entryDx=0;entryDy=0;" parent="VAtN4uS4ZIBycqeOR7FW-1" source="VAtN4uS4ZIBycqeOR7FW-7" target="VAtN4uS4ZIBycqeOR7FW-5" edge="1">
          <mxGeometry relative="1" as="geometry">
            <mxPoint x="355" y="210" as="targetPoint" />
          </mxGeometry>
        </mxCell>
        <mxCell id="VAtN4uS4ZIBycqeOR7FW-9" value="For Review" style="swimlane;html=1;fontStyle=1;align=center;verticalAlign=middle;childLayout=stackLayout;horizontal=1;startSize=21;horizontalStack=0;resizeParent=0;resizeLast=1;container=0;fontColor=#000000;collapsible=0;rounded=1;arcSize=10;strokeColor=#B3B3B3;fillColor=none;swimlaneFillColor=none;" parent="VAtN4uS4ZIBycqeOR7FW-1" vertex="1">
          <mxGeometry x="360" y="340" width="80" height="40" as="geometry" />
        </mxCell>
        <mxCell id="VAtN4uS4ZIBycqeOR7FW-10" value="Endorsed" style="swimlane;html=1;fontStyle=1;align=center;verticalAlign=middle;childLayout=stackLayout;horizontal=1;startSize=22;horizontalStack=0;resizeParent=0;resizeLast=1;container=0;fontColor=#B3B3B3;collapsible=0;rounded=1;arcSize=10;strokeColor=#B3B3B3;fillColor=#f5f5f5;swimlaneFillColor=#ffffff;" parent="VAtN4uS4ZIBycqeOR7FW-1" vertex="1">
          <mxGeometry x="520" y="440" width="80" height="40" as="geometry" />
        </mxCell>
        <mxCell id="VAtN4uS4ZIBycqeOR7FW-11" value="Approved" style="swimlane;html=1;fontStyle=1;align=center;verticalAlign=middle;childLayout=stackLayout;horizontal=1;startSize=23;horizontalStack=0;resizeParent=0;resizeLast=1;container=0;fontColor=#000000;collapsible=0;rounded=1;arcSize=10;strokeColor=#B3B3B3;fillColor=none;swimlaneFillColor=#ffffff;" parent="VAtN4uS4ZIBycqeOR7FW-1" vertex="1">
          <mxGeometry x="360" y="410" width="80" height="40" as="geometry" />
        </mxCell>
        <mxCell id="VAtN4uS4ZIBycqeOR7FW-12" style="edgeStyle=orthogonalEdgeStyle;rounded=0;orthogonalLoop=1;jettySize=auto;html=1;strokeWidth=1;" parent="VAtN4uS4ZIBycqeOR7FW-1" source="VAtN4uS4ZIBycqeOR7FW-13" edge="1">
          <mxGeometry relative="1" as="geometry">
            <mxPoint x="480" y="570" as="targetPoint" />
            <Array as="points">
              <mxPoint x="400" y="550" />
              <mxPoint x="480" y="550" />
            </Array>
          </mxGeometry>
        </mxCell>
        <mxCell id="VAtN4uS4ZIBycqeOR7FW-13" value="Released" style="swimlane;html=1;fontStyle=1;align=center;verticalAlign=middle;childLayout=stackLayout;horizontal=1;startSize=23;horizontalStack=0;resizeParent=0;resizeLast=1;container=0;fontColor=#000000;collapsible=0;rounded=1;arcSize=10;strokeColor=#B3B3B3;fillColor=none;swimlaneFillColor=#ffffff;" parent="VAtN4uS4ZIBycqeOR7FW-1" vertex="1">
          <mxGeometry x="360" y="490" width="80" height="40" as="geometry" />
        </mxCell>
        <mxCell id="VAtN4uS4ZIBycqeOR7FW-14" value="" style="edgeStyle=orthogonalEdgeStyle;html=1;verticalAlign=bottom;endArrow=open;endSize=8;strokeColor=#000000;exitX=0.5;exitY=1;exitDx=0;exitDy=0;entryX=0.5;entryY=0;entryDx=0;entryDy=0;" parent="VAtN4uS4ZIBycqeOR7FW-1" source="VAtN4uS4ZIBycqeOR7FW-11" target="VAtN4uS4ZIBycqeOR7FW-13" edge="1">
          <mxGeometry relative="1" as="geometry">
            <mxPoint x="160" y="440" as="targetPoint" />
            <mxPoint x="170" y="340" as="sourcePoint" />
          </mxGeometry>
        </mxCell>
        <mxCell id="VAtN4uS4ZIBycqeOR7FW-15" value="" style="edgeStyle=orthogonalEdgeStyle;html=1;verticalAlign=bottom;endArrow=open;endSize=8;strokeColor=#000000;exitX=0.5;exitY=1;exitDx=0;exitDy=0;entryX=0.5;entryY=0;entryDx=0;entryDy=0;" parent="VAtN4uS4ZIBycqeOR7FW-1" source="VAtN4uS4ZIBycqeOR7FW-9" target="VAtN4uS4ZIBycqeOR7FW-11" edge="1">
          <mxGeometry relative="1" as="geometry">
            <mxPoint x="340" y="400" as="targetPoint" />
            <mxPoint x="170" y="340" as="sourcePoint" />
            <Array as="points" />
          </mxGeometry>
        </mxCell>
        <mxCell id="VAtN4uS4ZIBycqeOR7FW-16" value="" style="edgeStyle=orthogonalEdgeStyle;html=1;verticalAlign=bottom;endArrow=open;endSize=8;strokeColor=#ff0000;exitX=0;exitY=0.5;exitDx=0;exitDy=0;entryX=1;entryY=0.5;entryDx=0;entryDy=0;" parent="VAtN4uS4ZIBycqeOR7FW-1" source="VAtN4uS4ZIBycqeOR7FW-9" target="VAtN4uS4ZIBycqeOR7FW-19" edge="1">
          <mxGeometry relative="1" as="geometry">
            <mxPoint x="490" y="330" as="targetPoint" />
            <mxPoint x="350" y="390" as="sourcePoint" />
          </mxGeometry>
        </mxCell>
        <mxCell id="VAtN4uS4ZIBycqeOR7FW-17" style="edgeStyle=orthogonalEdgeStyle;rounded=0;orthogonalLoop=1;jettySize=auto;html=1;entryX=0.75;entryY=0;entryDx=0;entryDy=0;exitX=0;exitY=0.75;exitDx=0;exitDy=0;" parent="VAtN4uS4ZIBycqeOR7FW-1" source="VAtN4uS4ZIBycqeOR7FW-19" target="VAtN4uS4ZIBycqeOR7FW-20" edge="1">
          <mxGeometry relative="1" as="geometry" />
        </mxCell>
        <mxCell id="VAtN4uS4ZIBycqeOR7FW-18" style="edgeStyle=orthogonalEdgeStyle;rounded=0;orthogonalLoop=1;jettySize=auto;html=1;entryX=0.75;entryY=1;entryDx=0;entryDy=0;exitX=0;exitY=0.25;exitDx=0;exitDy=0;" parent="VAtN4uS4ZIBycqeOR7FW-1" source="VAtN4uS4ZIBycqeOR7FW-19" target="VAtN4uS4ZIBycqeOR7FW-5" edge="1">
          <mxGeometry relative="1" as="geometry" />
        </mxCell>
        <mxCell id="VAtN4uS4ZIBycqeOR7FW-19" value="Rejected" style="swimlane;html=1;fontStyle=1;align=center;verticalAlign=middle;childLayout=stackLayout;horizontal=1;startSize=21;horizontalStack=0;resizeParent=0;resizeLast=1;container=0;fontColor=#000000;collapsible=0;rounded=1;arcSize=10;strokeColor=#B3B3B3;fillColor=none;swimlaneFillColor=none;" parent="VAtN4uS4ZIBycqeOR7FW-1" vertex="1">
          <mxGeometry x="240" y="340" width="80" height="40" as="geometry" />
        </mxCell>
        <mxCell id="VAtN4uS4ZIBycqeOR7FW-20" value="Abandoned" style="swimlane;html=1;fontStyle=1;align=center;verticalAlign=middle;childLayout=stackLayout;horizontal=1;startSize=21;horizontalStack=0;resizeParent=0;resizeLast=1;container=0;fontColor=#000000;collapsible=0;rounded=1;arcSize=10;strokeColor=#B3B3B3;fillColor=none;swimlaneFillColor=none;" parent="VAtN4uS4ZIBycqeOR7FW-1" vertex="1">
          <mxGeometry x="120" y="400" width="80" height="40" as="geometry" />
        </mxCell>
        <mxCell id="VAtN4uS4ZIBycqeOR7FW-21" value="&lt;font color=&quot;#cccccc&quot;&gt;Replaced&lt;/font&gt;" style="swimlane;html=1;fontStyle=1;align=center;verticalAlign=middle;childLayout=stackLayout;horizontal=1;startSize=23;horizontalStack=0;resizeParent=0;resizeLast=1;container=0;fontColor=#333333;collapsible=0;rounded=1;arcSize=10;strokeColor=#666666;fillColor=#f5f5f5;swimlaneFillColor=#ffffff;" parent="VAtN4uS4ZIBycqeOR7FW-1" vertex="1">
          <mxGeometry x="500" y="610" width="80" height="40" as="geometry" />
        </mxCell>
        <mxCell id="VAtN4uS4ZIBycqeOR7FW-22" value="" style="swimlane;html=1;fontStyle=1;align=center;verticalAlign=middle;childLayout=stackLayout;horizontal=1;startSize=23;horizontalStack=0;resizeParent=0;resizeLast=1;container=0;fontColor=#000000;collapsible=0;rounded=1;arcSize=10;strokeColor=#B3B3B3;fillColor=none;swimlaneFillColor=#ffffff;" parent="VAtN4uS4ZIBycqeOR7FW-21" vertex="1">
          <mxGeometry y="23" width="80" height="17" as="geometry" />
        </mxCell>
        <mxCell id="VAtN4uS4ZIBycqeOR7FW-23" style="edgeStyle=orthogonalEdgeStyle;rounded=0;orthogonalLoop=1;jettySize=auto;html=1;entryX=0.5;entryY=0;entryDx=0;entryDy=0;strokeWidth=1;" parent="VAtN4uS4ZIBycqeOR7FW-1" source="VAtN4uS4ZIBycqeOR7FW-24" target="VAtN4uS4ZIBycqeOR7FW-3" edge="1">
          <mxGeometry relative="1" as="geometry">
            <Array as="points">
              <mxPoint x="240" y="670" />
              <mxPoint x="440" y="670" />
            </Array>
          </mxGeometry>
        </mxCell>
        <mxCell id="VAtN4uS4ZIBycqeOR7FW-24" value="Retracted" style="swimlane;html=1;fontStyle=1;align=center;verticalAlign=middle;childLayout=stackLayout;horizontal=1;startSize=23;horizontalStack=0;resizeParent=0;resizeLast=1;container=0;fontColor=#000000;collapsible=0;rounded=1;arcSize=10;strokeColor=#B3B3B3;fillColor=none;swimlaneFillColor=#ffffff;" parent="VAtN4uS4ZIBycqeOR7FW-1" vertex="1">
          <mxGeometry x="200" y="610" width="80" height="40" as="geometry" />
        </mxCell>
        <mxCell id="VAtN4uS4ZIBycqeOR7FW-25" value="Superceded" style="swimlane;html=1;fontStyle=1;align=center;verticalAlign=middle;childLayout=stackLayout;horizontal=1;startSize=23;horizontalStack=0;resizeParent=0;resizeLast=1;container=0;fontColor=#000000;collapsible=0;rounded=1;arcSize=10;strokeColor=#B3B3B3;fillColor=none;swimlaneFillColor=#ffffff;" parent="VAtN4uS4ZIBycqeOR7FW-1" vertex="1">
          <mxGeometry x="600" y="610" width="80" height="40" as="geometry" />
        </mxCell>
        <mxCell id="VAtN4uS4ZIBycqeOR7FW-26" style="edgeStyle=orthogonalEdgeStyle;rounded=0;orthogonalLoop=1;jettySize=auto;html=1;entryX=0.5;entryY=0;entryDx=0;entryDy=0;strokeWidth=1;" parent="VAtN4uS4ZIBycqeOR7FW-1" source="VAtN4uS4ZIBycqeOR7FW-27" target="VAtN4uS4ZIBycqeOR7FW-3" edge="1">
          <mxGeometry relative="1" as="geometry" />
        </mxCell>
        <mxCell id="VAtN4uS4ZIBycqeOR7FW-27" value="Merged" style="swimlane;html=1;fontStyle=1;align=center;verticalAlign=middle;childLayout=stackLayout;horizontal=1;startSize=23;horizontalStack=0;resizeParent=0;resizeLast=1;container=0;fontColor=#000000;collapsible=0;rounded=1;arcSize=10;strokeColor=#B3B3B3;fillColor=none;swimlaneFillColor=#ffffff;" parent="VAtN4uS4ZIBycqeOR7FW-1" vertex="1">
          <mxGeometry x="400" y="610" width="80" height="40" as="geometry" />
        </mxCell>
        <mxCell id="VAtN4uS4ZIBycqeOR7FW-28" style="edgeStyle=orthogonalEdgeStyle;rounded=0;orthogonalLoop=1;jettySize=auto;html=1;strokeWidth=1;" parent="VAtN4uS4ZIBycqeOR7FW-1" source="VAtN4uS4ZIBycqeOR7FW-29" edge="1">
          <mxGeometry relative="1" as="geometry">
            <mxPoint x="440" y="700" as="targetPoint" />
            <Array as="points">
              <mxPoint x="340" y="670" />
              <mxPoint x="440" y="670" />
            </Array>
          </mxGeometry>
        </mxCell>
        <mxCell id="VAtN4uS4ZIBycqeOR7FW-29" value="Retired" style="swimlane;html=1;fontStyle=1;align=center;verticalAlign=middle;childLayout=stackLayout;horizontal=1;startSize=23;horizontalStack=0;resizeParent=0;resizeLast=1;container=0;fontColor=#000000;collapsible=0;rounded=1;arcSize=10;strokeColor=#B3B3B3;fillColor=none;swimlaneFillColor=#ffffff;" parent="VAtN4uS4ZIBycqeOR7FW-1" vertex="1">
          <mxGeometry x="300" y="610" width="80" height="40" as="geometry" />
        </mxCell>
        <mxCell id="VAtN4uS4ZIBycqeOR7FW-30" value="" style="endArrow=none;html=1;strokeWidth=4;" parent="VAtN4uS4ZIBycqeOR7FW-1" edge="1">
          <mxGeometry width="50" height="50" relative="1" as="geometry">
            <mxPoint x="360" y="570" as="sourcePoint" />
            <mxPoint x="600" y="570" as="targetPoint" />
          </mxGeometry>
        </mxCell>
        <mxCell id="VAtN4uS4ZIBycqeOR7FW-31" style="edgeStyle=orthogonalEdgeStyle;rounded=0;orthogonalLoop=1;jettySize=auto;html=1;strokeWidth=1;entryX=0.5;entryY=0;entryDx=0;entryDy=0;" parent="VAtN4uS4ZIBycqeOR7FW-1" target="VAtN4uS4ZIBycqeOR7FW-24" edge="1">
          <mxGeometry relative="1" as="geometry">
            <mxPoint x="500" y="590" as="targetPoint" />
            <mxPoint x="480" y="560" as="sourcePoint" />
            <Array as="points">
              <mxPoint x="480" y="590" />
              <mxPoint x="240" y="590" />
            </Array>
          </mxGeometry>
        </mxCell>
        <mxCell id="VAtN4uS4ZIBycqeOR7FW-32" style="edgeStyle=orthogonalEdgeStyle;rounded=0;orthogonalLoop=1;jettySize=auto;html=1;strokeWidth=1;entryX=0.5;entryY=0;entryDx=0;entryDy=0;" parent="VAtN4uS4ZIBycqeOR7FW-1" target="VAtN4uS4ZIBycqeOR7FW-29" edge="1">
          <mxGeometry relative="1" as="geometry">
            <mxPoint x="250" y="620" as="targetPoint" />
            <mxPoint x="480" y="570" as="sourcePoint" />
            <Array as="points">
              <mxPoint x="480" y="590" />
              <mxPoint x="340" y="590" />
            </Array>
          </mxGeometry>
        </mxCell>
        <mxCell id="VAtN4uS4ZIBycqeOR7FW-33" style="edgeStyle=orthogonalEdgeStyle;rounded=0;orthogonalLoop=1;jettySize=auto;html=1;strokeWidth=1;entryX=0.5;entryY=0;entryDx=0;entryDy=0;" parent="VAtN4uS4ZIBycqeOR7FW-1" target="VAtN4uS4ZIBycqeOR7FW-27" edge="1">
          <mxGeometry relative="1" as="geometry">
            <mxPoint x="350" y="620" as="targetPoint" />
            <mxPoint x="480" y="570" as="sourcePoint" />
            <Array as="points">
              <mxPoint x="480" y="590" />
              <mxPoint x="440" y="590" />
            </Array>
          </mxGeometry>
        </mxCell>
        <mxCell id="VAtN4uS4ZIBycqeOR7FW-34" style="edgeStyle=orthogonalEdgeStyle;rounded=0;orthogonalLoop=1;jettySize=auto;html=1;strokeWidth=1;entryX=0.5;entryY=0;entryDx=0;entryDy=0;" parent="VAtN4uS4ZIBycqeOR7FW-1" target="VAtN4uS4ZIBycqeOR7FW-21" edge="1">
          <mxGeometry relative="1" as="geometry">
            <mxPoint x="450" y="620" as="targetPoint" />
            <mxPoint x="480" y="570" as="sourcePoint" />
            <Array as="points">
              <mxPoint x="480" y="590" />
              <mxPoint x="540" y="590" />
            </Array>
          </mxGeometry>
        </mxCell>
        <mxCell id="VAtN4uS4ZIBycqeOR7FW-35" style="edgeStyle=orthogonalEdgeStyle;rounded=0;orthogonalLoop=1;jettySize=auto;html=1;strokeWidth=1;entryX=0.5;entryY=0;entryDx=0;entryDy=0;" parent="VAtN4uS4ZIBycqeOR7FW-1" target="VAtN4uS4ZIBycqeOR7FW-25" edge="1">
          <mxGeometry relative="1" as="geometry">
            <mxPoint x="550" y="620" as="targetPoint" />
            <mxPoint x="480" y="570" as="sourcePoint" />
            <Array as="points">
              <mxPoint x="640" y="590" />
            </Array>
          </mxGeometry>
        </mxCell>
        <mxCell id="VAtN4uS4ZIBycqeOR7FW-36" style="edgeStyle=orthogonalEdgeStyle;rounded=0;orthogonalLoop=1;jettySize=auto;html=1;strokeWidth=1;entryX=0.5;entryY=0;entryDx=0;entryDy=0;exitX=0.5;exitY=1;exitDx=0;exitDy=0;" parent="VAtN4uS4ZIBycqeOR7FW-1" source="VAtN4uS4ZIBycqeOR7FW-25" target="VAtN4uS4ZIBycqeOR7FW-3" edge="1">
          <mxGeometry relative="1" as="geometry">
            <mxPoint x="250.28571428571422" y="620.1428571428571" as="targetPoint" />
            <mxPoint x="490.2857142857142" y="569.8571428571429" as="sourcePoint" />
            <Array as="points">
              <mxPoint x="640" y="670" />
              <mxPoint x="440" y="670" />
            </Array>
          </mxGeometry>
        </mxCell>
        <mxCell id="VAtN4uS4ZIBycqeOR7FW-37" style="edgeStyle=orthogonalEdgeStyle;rounded=0;orthogonalLoop=1;jettySize=auto;html=1;entryX=0.5;entryY=0;entryDx=0;entryDy=0;strokeWidth=1;" parent="VAtN4uS4ZIBycqeOR7FW-1" source="VAtN4uS4ZIBycqeOR7FW-22" target="VAtN4uS4ZIBycqeOR7FW-3" edge="1">
          <mxGeometry relative="1" as="geometry">
            <Array as="points">
              <mxPoint x="540" y="670" />
              <mxPoint x="440" y="670" />
            </Array>
          </mxGeometry>
        </mxCell>
        <mxCell id="wGqdsV9pXkN21w86dylC-0" value="Title/Diagram" parent="VAtN4uS4ZIBycqeOR7FW-0" />
        <mxCell id="VAtN4uS4ZIBycqeOR7FW-2" value="&lt;font style=&quot;font-size: 12px&quot;&gt;&lt;span style=&quot;font-size: 12px&quot;&gt;Diagram: Media Logical Module -&amp;nbsp;&lt;/span&gt;Sequence - Resource State&lt;/font&gt;" style="text;strokeColor=none;fillColor=none;html=1;fontSize=12;fontStyle=2;verticalAlign=middle;align=left;shadow=0;glass=0;comic=0;opacity=30;fontColor=#808080;" parent="wGqdsV9pXkN21w86dylC-0" vertex="1">
          <mxGeometry x="120" y="740" width="520" height="20" as="geometry" />
        </mxCell>
      </root>
    </mxGraphModel>
  </diagram>
</mxfile>
